<svg id="Layer_1" data-name="Layer 1" xmlns="http://www.w3.org/2000/svg" viewBox="0 0 526 370.67"><defs><style>.cls-1{fill:none;}.cls-1,.cls-2,.cls-3,.cls-4,.cls-5,.cls-6{stroke:#000;stroke-miterlimit:10;}.cls-2{fill:#ff66d2;}.cls-2,.cls-3,.cls-4,.cls-5,.cls-6{stroke-width:0.5px;}.cls-3{fill:#fff;}.cls-4{fill:#8c1c6c;}.cls-5{fill:#3d9941;}</style></defs><title>Artboard 1</title><path d="M40.07,11.2a18.92,18.92,0,0,1,3.41-.32,6.32,6.32,0,0,1,5,1.89,7.86,7.86,0,0,1,1.75,5.44,9,9,0,0,1-1.79,5.88A6.83,6.83,0,0,1,43,26.27a21.64,21.64,0,0,1-2.91-.18Zm1.6,13.38a8.35,8.35,0,0,0,1.63.12c3.43,0,5.29-2.34,5.29-6.43,0-3.57-1.64-5.84-5-5.84a7.24,7.24,0,0,0-1.89.21Z"/><path d="M52.3,18.65c0-1.28,0-2.38-.07-3.39h1.42l.05,2.14h.08A2.82,2.82,0,0,1,56.25,15a1.65,1.65,0,0,1,.46.06V17a1.84,1.84,0,0,0-.55-.07c-1.15,0-2,1.06-2.18,2.54a6.27,6.27,0,0,0-.07.92v5.79H52.3Z"/><path d="M64.46,20.9c-.06,2.58,1.16,4,2.84,4a4.48,4.48,0,0,0,2.44-.62L70,25.62a5.43,5.43,0,0,1-2.93.76A3.5,3.5,0,0,1,63.7,24h0a3.49,3.49,0,0,1-3.32,2.4,2.83,2.83,0,0,1-2.79-3.1c0-2.51,1.92-4,5.39-3.93V18.9c0-.54-.28-2.42-2.09-2.42a3.83,3.83,0,0,0-2.29.83L58.19,16A5,5,0,0,1,61,15a2.79,2.79,0,0,1,2.88,2.31h0A3.38,3.38,0,0,1,67,15c2.74,0,3.49,3.21,3.49,5a6.75,6.75,0,0,1,0,.88ZM63,20.68c-1.71-.05-3.8.31-3.8,2.44a1.61,1.61,0,0,0,1.55,1.8,2.27,2.27,0,0,0,2.16-1.86,2.59,2.59,0,0,0,.09-.79Zm6-1.19c.06-1.1-.44-3.06-2.08-3.06s-2.34,1.82-2.4,3.06Z"/><path d="M72.43,26.13c0-.74.07-1.84.07-2.8V10.19h1.61V17h0a3.23,3.23,0,0,1,3-2C79.4,15,81,17.26,81,20.56c0,3.89-2,5.82-4,5.82a3.13,3.13,0,0,1-3-2h0l-.08,1.79Zm1.68-4.35a5.66,5.66,0,0,0,.07.72,2.66,2.66,0,0,0,2.44,2.31c1.7,0,2.71-1.69,2.71-4.18,0-2.18-.92-4-2.66-4A2.75,2.75,0,0,0,74.2,19a5.71,5.71,0,0,0-.09.81Z"/><path d="M85,12.14v3.12h2.32v1.51H85v5.86c0,1.35.31,2.11,1.22,2.11a3.34,3.34,0,0,0,.94-.13l.07,1.48a3.28,3.28,0,0,1-1.44.27A2.07,2.07,0,0,1,84,25.53a4.69,4.69,0,0,1-.63-2.83V16.77H82V15.26h1.38v-2.6Z"/><path d="M89.9,21.06c0,2.67,1.44,3.77,3.07,3.77a5,5,0,0,0,2.47-.56l.27,1.42a6.19,6.19,0,0,1-3,.67c-2.74,0-4.39-2.2-4.39-5.48S89.94,15,92.54,15c2.92,0,3.69,3.12,3.69,5.12,0,.4,0,.72,0,.92Zm4.76-1.42c0-1.25-.42-3.21-2.25-3.21-1.64,0-2.36,1.84-2.49,3.21Z"/><path d="M104,12.21a1.07,1.07,0,0,1-1,1.21,1.09,1.09,0,0,1-1-1.21A1.12,1.12,0,0,1,103,11C103.57,11,104,11.51,104,12.21Zm-1.81,13.92V15.26h1.63V26.13Z"/><path d="M110.55,26.13V16.77h-1.26V15.26h1.26v-.51a5.91,5.91,0,0,1,1-3.8,2.81,2.81,0,0,1,2.18-1,3.27,3.27,0,0,1,1.38.31l-.22,1.53a2.1,2.1,0,0,0-1-.25c-1.39,0-1.74,1.49-1.74,3.15v.58h2.16v1.51h-2.16v9.36Z"/><path d="M122,20.9c-.06,2.58,1.16,4,2.84,4a4.44,4.44,0,0,0,2.43-.62l.3,1.39a5.43,5.43,0,0,1-2.93.76,3.5,3.5,0,0,1-3.4-2.4h0a3.48,3.48,0,0,1-3.32,2.4,2.83,2.83,0,0,1-2.78-3.1c0-2.51,1.92-4,5.38-3.93V18.9c0-.54-.27-2.42-2.08-2.42a3.83,3.83,0,0,0-2.29.83L115.72,16a5,5,0,0,1,2.78-1,2.79,2.79,0,0,1,2.88,2.31h0A3.37,3.37,0,0,1,124.53,15c2.73,0,3.49,3.21,3.49,5a5.18,5.18,0,0,1-.06.88Zm-1.5-.22c-1.71-.05-3.8.31-3.8,2.44a1.6,1.6,0,0,0,1.55,1.8,2.28,2.28,0,0,0,2.16-1.86,3,3,0,0,0,.09-.79Zm6-1.19c.06-1.1-.44-3.06-2.08-3.06S122,18.25,122,19.49Z"/><path d="M130,18.65c0-1.28,0-2.38-.07-3.39h1.42l.05,2.14h.08A2.82,2.82,0,0,1,134,15a1.6,1.6,0,0,1,.46.06V17a1.79,1.79,0,0,0-.55-.07c-1.15,0-2,1.06-2.18,2.54a6.27,6.27,0,0,0-.07.92v5.79H130Z"/><path d="M143.59,10.19V23.33c0,1,0,2.06.08,2.8h-1.46l-.07-1.88h0a3.28,3.28,0,0,1-3,2.13c-2.15,0-3.81-2.22-3.81-5.52,0-3.62,1.82-5.84,4-5.84a2.88,2.88,0,0,1,2.69,1.66h0V10.19ZM142,19.69a4.57,4.57,0,0,0-.07-.83,2.56,2.56,0,0,0-2.35-2.29c-1.68,0-2.67,1.79-2.67,4.2,0,2.2.88,4,2.64,4a2.62,2.62,0,0,0,2.38-2.36,4.61,4.61,0,0,0,.07-.86Z"/><path d="M146.07,24.11a3.73,3.73,0,0,0,2.14.79,1.55,1.55,0,0,0,1.73-1.62c0-.94-.46-1.46-1.66-2a3.32,3.32,0,0,1-2.36-3.07A3,3,0,0,1,149,15a3.82,3.82,0,0,1,2.19.67l-.4,1.44A3.05,3.05,0,0,0,149,16.5,1.41,1.41,0,0,0,147.47,18c0,.9.53,1.3,1.7,1.84a3.36,3.36,0,0,1,2.34,3.28,3.08,3.08,0,0,1-3.34,3.26,4.39,4.39,0,0,1-2.51-.74Z"/><path d="M154.5,21.06c0,2.67,1.44,3.77,3.06,3.77a5,5,0,0,0,2.47-.56l.28,1.42a6.19,6.19,0,0,1-3,.67c-2.75,0-4.39-2.2-4.39-5.48S154.54,15,157.14,15c2.91,0,3.69,3.12,3.69,5.12a8.38,8.38,0,0,1-.06.92Zm4.76-1.42c0-1.25-.43-3.21-2.25-3.21-1.64,0-2.36,1.84-2.49,3.21Z"/><path d="M162.84,10.19h1.62V26.13h-1.62Z"/><path d="M167,24.11a3.76,3.76,0,0,0,2.14.79,1.55,1.55,0,0,0,1.73-1.62c0-.94-.46-1.46-1.66-2a3.33,3.33,0,0,1-2.36-3.07A3,3,0,0,1,169.9,15a3.86,3.86,0,0,1,2.2.67l-.41,1.44a3,3,0,0,0-1.82-.63,1.42,1.42,0,0,0-1.5,1.48c0,.9.54,1.3,1.7,1.84a3.36,3.36,0,0,1,2.34,3.28,3.08,3.08,0,0,1-3.34,3.26,4.41,4.41,0,0,1-2.51-.74Z"/><path d="M182,23.17c0,1.12,0,2.11.07,3H180.6l-.09-1.77h0a3.33,3.33,0,0,1-3,2c-1.4,0-3.08-.94-3.08-4.76V15.26h1.63v6c0,2.07.51,3.46,2,3.46a2.43,2.43,0,0,0,2.14-1.8,3.51,3.51,0,0,0,.15-1V15.26H182Z"/><path d="M184.66,10.19h1.63V17h0a3.38,3.38,0,0,1,1.17-1.39,2.88,2.88,0,0,1,1.66-.56c1.2,0,3.11.89,3.11,4.65v6.46h-1.62V19.89c0-1.75-.53-3.23-2.06-3.23a2.43,2.43,0,0,0-2.18,2,3,3,0,0,0-.11.95v6.55h-1.63Z"/><path d="M195.81,21.06c0,2.67,1.44,3.77,3.06,3.77a5,5,0,0,0,2.47-.56l.28,1.42a6.19,6.19,0,0,1-3,.67c-2.75,0-4.39-2.2-4.39-5.48S195.84,15,198.45,15c2.91,0,3.69,3.12,3.69,5.12a8.38,8.38,0,0,1-.06.92Zm4.76-1.42c0-1.25-.43-3.21-2.25-3.21-1.64,0-2.36,1.84-2.49,3.21Z"/><path d="M204.15,10.19h1.62V26.13h-1.62Z"/><path d="M216.21,10.19V23.33c0,1,0,2.06.08,2.8h-1.46l-.07-1.88h0a3.28,3.28,0,0,1-3,2.13c-2.16,0-3.82-2.22-3.82-5.52,0-3.62,1.82-5.84,4-5.84a2.87,2.87,0,0,1,2.69,1.66h0V10.19Zm-1.62,9.5a4.57,4.57,0,0,0-.07-.83,2.56,2.56,0,0,0-2.35-2.29c-1.67,0-2.67,1.79-2.67,4.2,0,2.2.88,4,2.64,4a2.61,2.61,0,0,0,2.38-2.36,4.61,4.61,0,0,0,.07-.86Z"/><path d="M222.3,26.13V24.92l1.28-1.5C226.64,19.87,228,18,228,15.78c0-1.48-.59-2.85-2.38-2.85a3.72,3.72,0,0,0-2.54,1.23l-.52-1.39A4.75,4.75,0,0,1,226,11.29c2.59,0,3.67,2.15,3.67,4.24,0,2.7-1.6,4.88-4.13,7.84l-1,1.08v0H230v1.64Z"/><path d="M239.74,18.68c0,5-1.51,7.7-4.17,7.7-2.34,0-3.93-2.67-4-7.5s1.74-7.59,4.17-7.59S239.74,14,239.74,18.68Zm-6.51.22c0,3.8,1,6,2.43,6,1.66,0,2.45-2.35,2.45-6.08s-.75-6-2.43-6C234.26,12.81,233.23,14.93,233.23,18.9Z"/><path d="M244.76,13.38h0l-2.08,1.37-.32-1.51,2.62-1.71h1.39v14.6h-1.57Z"/><path d="M250.55,22.43a4.18,4.18,0,0,1,2.38-3.91l0-.07a3.67,3.67,0,0,1-1.9-3.28,3.67,3.67,0,0,1,3.71-3.88,3.4,3.4,0,0,1,3.49,3.59,3.8,3.8,0,0,1-2,3.42v.06a4,4,0,0,1,2.42,3.78,4,4,0,0,1-4.08,4.24A3.84,3.84,0,0,1,250.55,22.43Zm6.46-.09c0-1.78-1-2.63-2.64-3.19a3.06,3.06,0,0,0-2.16,3,2.48,2.48,0,0,0,2.4,2.78A2.39,2.39,0,0,0,257,22.34ZM252.54,15c0,1.46.91,2.24,2.29,2.69a2.79,2.79,0,0,0,1.83-2.65,2.08,2.08,0,1,0-4.12,0Z"/><line class="cls-1" x1="33" y1="347" x2="345" y2="347"/><line class="cls-1" x1="33" y1="347" x2="33" y2="339.38"/><line class="cls-1" x1="345" y1="347" x2="345" y2="339.38"/><path d="M27.6,347.63c0,3.23-1.2,5-3.31,5-1.85,0-3.11-1.74-3.14-4.89s1.37-4.94,3.3-4.94S27.6,344.61,27.6,347.63Zm-5.16.15c0,2.47.76,3.87,1.92,3.87,1.32,0,1.95-1.53,1.95-4s-.6-3.87-1.93-3.87C23.25,343.82,22.44,345.19,22.44,347.78Z"/><path d="M16.57,283.25h0l-1.65.89-.25-1,2.08-1.11h1.09v9.5H16.57Z"/><path d="M27.6,286.7c0,3.23-1.2,5-3.31,5-1.85,0-3.11-1.74-3.14-4.88s1.37-4.94,3.3-4.94S27.6,283.67,27.6,286.7Zm-5.16.14c0,2.47.76,3.88,1.92,3.88,1.32,0,1.95-1.54,1.95-4s-.6-3.88-1.93-3.88C23.25,282.88,22.44,284.26,22.44,286.84Z"/><path d="M13.78,230.62v-.79l1-1c2.42-2.31,3.52-3.54,3.53-5A1.69,1.69,0,0,0,16.44,222a3.23,3.23,0,0,0-2,.81l-.41-.91a4.19,4.19,0,0,1,2.69-1,2.67,2.67,0,0,1,2.91,2.76c0,1.75-1.27,3.17-3.27,5.1l-.76.7v0h4.26v1.07Z"/><path d="M27.6,225.76c0,3.24-1.2,5-3.31,5-1.85,0-3.11-1.74-3.14-4.88s1.37-4.94,3.3-4.94S27.6,222.74,27.6,225.76Zm-5.16.15c0,2.47.76,3.88,1.92,3.88,1.32,0,1.95-1.54,1.95-4s-.6-3.87-1.93-3.87C23.25,222,22.44,223.32,22.44,225.91Z"/><path d="M14.08,168.21a4.39,4.39,0,0,0,2.11.6c1.65,0,2.16-1.06,2.15-1.84,0-1.33-1.21-1.9-2.46-1.9h-.71v-1h.71c.94,0,2.12-.48,2.12-1.61,0-.76-.48-1.43-1.66-1.43a3.51,3.51,0,0,0-1.9.63l-.34-.94a4.56,4.56,0,0,1,2.48-.73c1.88,0,2.72,1.11,2.72,2.27a2.34,2.34,0,0,1-1.75,2.23v0A2.49,2.49,0,0,1,19.67,167c0,1.52-1.19,2.85-3.47,2.85a4.82,4.82,0,0,1-2.47-.65Z"/><path d="M27.6,164.83c0,3.23-1.2,5-3.31,5-1.85,0-3.11-1.74-3.14-4.89s1.37-4.94,3.3-4.94S27.6,161.81,27.6,164.83Zm-5.16.15c0,2.47.76,3.87,1.92,3.87,1.32,0,1.95-1.53,1.95-4s-.6-3.87-1.93-3.87C23.25,161,22.44,162.39,22.44,165Z"/><path d="M17.75,108.75v-2.59H13.34v-.84l4.24-6.07H19v5.91H20.3v1H19v2.59Zm0-3.59V102c0-.49,0-1,.05-1.49h-.05c-.29.56-.52,1-.79,1.41l-2.32,3.23v0Z"/><path d="M27.6,103.9c0,3.23-1.2,5-3.31,5-1.85,0-3.11-1.74-3.14-4.88s1.37-4.94,3.3-4.94S27.6,100.87,27.6,103.9Zm-5.16.14c0,2.47.76,3.88,1.92,3.88,1.32,0,1.95-1.54,1.95-4s-.6-3.88-1.93-3.88C23.25,100.08,22.44,101.46,22.44,104Z"/><path d="M19.45,39.4H15.82l-.36,2.44a4.9,4.9,0,0,1,.77-.06,4,4,0,0,1,2.05.51,2.7,2.7,0,0,1,1.36,2.44A3.3,3.3,0,0,1,16.1,48a4.59,4.59,0,0,1-2.37-.59l.33-1a4.17,4.17,0,0,0,2,.53,2.1,2.1,0,0,0,2.25-2.06c0-1.23-.83-2.11-2.74-2.11a8.68,8.68,0,0,0-1.31.11l.61-4.56h4.55Z"/><path d="M27.6,43c0,3.24-1.2,5-3.31,5-1.85,0-3.11-1.74-3.14-4.88s1.37-4.94,3.3-4.94S27.6,39.94,27.6,43Zm-5.16.15c0,2.47.76,3.87,1.92,3.87,1.32,0,1.95-1.53,1.95-4s-.6-3.87-1.93-3.87C23.25,39.15,22.44,40.52,22.44,43.11Z"/><line class="cls-1" x1="33" y1="347" x2="33" y2="42.33"/><line class="cls-1" x1="33" y1="347" x2="40.8" y2="347"/><line class="cls-1" x1="33" y1="286.07" x2="40.8" y2="286.07"/><line class="cls-1" x1="33" y1="225.13" x2="40.8" y2="225.13"/><line class="cls-1" x1="33" y1="164.2" x2="40.8" y2="164.2"/><line class="cls-1" x1="33" y1="103.27" x2="40.8" y2="103.27"/><line class="cls-1" x1="33" y1="42.33" x2="40.8" y2="42.33"/><rect class="cls-2" x="368.5" y="42.33" width="39" height="30.47"/><rect class="cls-2" x="266.38" y="42.33" width="44.93" height="304.67"/><rect class="cls-3" x="368.5" y="88.03" width="39" height="30.47"/><rect class="cls-3" x="216.46" y="48.43" width="44.93" height="298.57"/><rect class="cls-4" x="368.5" y="133.73" width="39" height="30.47"/><rect class="cls-4" x="166.54" y="91.08" width="44.93" height="255.92"/><rect class="cls-5" x="368.5" y="179.43" width="39" height="30.47"/><rect class="cls-5" x="116.62" y="243.41" width="44.93" height="103.59"/><rect class="cls-6" x="368.5" y="225.13" width="39" height="30.47"/><rect class="cls-6" x="66.7" y="273.88" width="44.93" height="73.12"/><path d="M418.46,54.46a4.84,4.84,0,0,0-1,0,3.87,3.87,0,0,0-3.3,3.38h0a2.89,2.89,0,0,1,5.16,2,3.18,3.18,0,0,1-3.16,3.35c-2,0-3.36-1.58-3.36-4.05a6,6,0,0,1,1.61-4.28,5.1,5.1,0,0,1,3-1.4,6.12,6.12,0,0,1,.94-.08Zm-.37,5.48a1.93,1.93,0,0,0-2-2.18,2.11,2.11,0,0,0-1.84,1.17,1.09,1.09,0,0,0-.15.57c0,1.56.75,2.72,2.09,2.72C417.34,62.22,418.09,61.3,418.09,59.94Z"/><path d="M426.21,54.63h-3.63l-.36,2.44A4.9,4.9,0,0,1,423,57a4,4,0,0,1,2.05.52A2.71,2.71,0,0,1,426.4,60a3.3,3.3,0,0,1-3.54,3.24,4.67,4.67,0,0,1-2.37-.58l.32-1a4.33,4.33,0,0,0,2,.52,2.1,2.1,0,0,0,2.26-2.06c0-1.22-.84-2.1-2.74-2.1a10.48,10.48,0,0,0-1.31.1l.61-4.56h4.55Z"/><path d="M435.46,63.05l-.1-.89h0a2.66,2.66,0,0,1-2.16,1.05,2,2,0,0,1-2.17-2c0-1.71,1.52-2.65,4.26-2.63V58.4a1.46,1.46,0,0,0-1.61-1.63,3.5,3.5,0,0,0-1.84.52l-.3-.85a4.43,4.43,0,0,1,2.33-.62c2.16,0,2.69,1.47,2.69,2.89v2.65a10.81,10.81,0,0,0,.11,1.69Zm-.18-3.61c-1.41,0-3,.22-3,1.59a1.13,1.13,0,0,0,1.21,1.23,1.75,1.75,0,0,0,1.71-1.18,1.19,1.19,0,0,0,.08-.41Zm-2.77-5.57A1.38,1.38,0,0,1,434,52.48a1.37,1.37,0,1,1-1.49,1.39Zm2.22,0a.74.74,0,1,0-1.47,0,.74.74,0,1,0,1.47,0Z"/><path d="M438.6,58.18c0-.83,0-1.55-.06-2.2h1.12l0,1.38h.06a2.1,2.1,0,0,1,2-1.54,1.4,1.4,0,0,1,.37,0v1.21a1.89,1.89,0,0,0-.44,0,1.8,1.8,0,0,0-1.72,1.65,3.58,3.58,0,0,0-.06.6v3.77H438.6Z"/><path d="M452.88,59.46a3.45,3.45,0,0,1-3.52,3.75A3.36,3.36,0,0,1,446,59.57a3.45,3.45,0,0,1,3.51-3.75A3.34,3.34,0,0,1,452.88,59.46Zm-5.61.07c0,1.55.89,2.72,2.15,2.72s2.15-1.16,2.15-2.75c0-1.2-.6-2.72-2.12-2.72S447.27,58.18,447.27,59.53Z"/><path d="M460.6,56c0,.51-.05,1.08-.05,1.94V62c0,1.62-.33,2.61-1,3.23a3.78,3.78,0,0,1-2.58.85,4.58,4.58,0,0,1-2.35-.59l.32-1a4,4,0,0,0,2.08.56c1.31,0,2.28-.69,2.28-2.47v-.79h0A2.53,2.53,0,0,1,457,63a3.16,3.16,0,0,1-3-3.45c0-2.4,1.56-3.75,3.18-3.75A2.36,2.36,0,0,1,459.39,57h0l.06-1.06Zm-1.33,2.79a1.87,1.87,0,0,0-1.87-2c-1.23,0-2.1,1-2.1,2.68,0,1.39.7,2.54,2.09,2.54a1.87,1.87,0,0,0,1.78-1.31,2.06,2.06,0,0,0,.1-.69Z"/><path d="M471.89,52.67v8.55c0,.63,0,1.35.06,1.83H470.8l-.06-1.23h0a2.61,2.61,0,0,1-2.41,1.39c-1.71,0-3-1.45-3-3.59,0-2.36,1.45-3.8,3.17-3.8a2.36,2.36,0,0,1,2.14,1.08h0V52.67Zm-1.28,6.19a2.64,2.64,0,0,0-.06-.55,1.9,1.9,0,0,0-1.86-1.49c-1.33,0-2.12,1.17-2.12,2.74s.71,2.61,2.09,2.61a1.93,1.93,0,0,0,1.89-1.53,2.47,2.47,0,0,0,.06-.56Z"/><path d="M474.75,59.75a2.26,2.26,0,0,0,2.42,2.45,4.7,4.7,0,0,0,2-.36l.22.92a5.76,5.76,0,0,1-2.35.44,3.29,3.29,0,0,1-3.48-3.57c0-2.13,1.26-3.81,3.32-3.81,2.31,0,2.92,2,2.92,3.33,0,.26,0,.47,0,.6Zm3.77-.92a1.84,1.84,0,0,0-1.78-2.09,2.15,2.15,0,0,0-2,2.09Z"/><path d="M481.36,58.18c0-.83,0-1.55-.06-2.2h1.13l0,1.38h.06a2.12,2.12,0,0,1,2-1.54,1.32,1.32,0,0,1,.36,0v1.21a1.89,1.89,0,0,0-.44,0,1.81,1.81,0,0,0-1.72,1.65,3.58,3.58,0,0,0-.06.6v3.77h-1.27Z"/><path d="M492.4,59.46a3.46,3.46,0,0,1-3.52,3.75,3.37,3.37,0,0,1-3.4-3.64A3.45,3.45,0,0,1,489,55.82,3.35,3.35,0,0,1,492.4,59.46Zm-5.62.07c0,1.55.9,2.72,2.15,2.72s2.15-1.16,2.15-2.75c0-1.2-.6-2.72-2.12-2.72S486.78,58.18,486.78,59.53Z"/><path d="M494.42,56l1.39,4c.23.65.42,1.23.57,1.81h0c.16-.58.37-1.16.6-1.81l1.38-4h1.34L497,63.05h-1.22L493.05,56Z"/><path d="M501.53,59.75A2.26,2.26,0,0,0,504,62.2a4.74,4.74,0,0,0,2-.36l.22.92a5.79,5.79,0,0,1-2.35.44,3.29,3.29,0,0,1-3.48-3.57c0-2.13,1.26-3.81,3.32-3.81,2.31,0,2.92,2,2.92,3.33,0,.26,0,.47,0,.6Zm3.77-.92a1.84,1.84,0,0,0-1.79-2.09,2.13,2.13,0,0,0-2,2.09Z"/><path d="M508.14,58.18c0-.83,0-1.55-.06-2.2h1.12l.05,1.38h.06a2.11,2.11,0,0,1,2-1.54,1.37,1.37,0,0,1,.36,0v1.21a1.89,1.89,0,0,0-.44,0,1.8,1.8,0,0,0-1.72,1.65,3.58,3.58,0,0,0-.06.6v3.77h-1.27Z"/><path d="M417,108.75v-2.59h-4.42v-.84l4.24-6.07h1.39v5.91h1.33v1h-1.33v2.59Zm0-3.59V102c0-.49,0-1,0-1.49h0c-.29.56-.53,1-.79,1.41l-2.32,3.23v0Z"/><path d="M426.21,100.33h-3.63l-.36,2.44a4.9,4.9,0,0,1,.77-.06,4.06,4.06,0,0,1,2.05.52,2.71,2.71,0,0,1,1.36,2.44,3.3,3.3,0,0,1-3.54,3.24,4.67,4.67,0,0,1-2.37-.58l.32-1a4.33,4.33,0,0,0,2,.52,2.1,2.1,0,0,0,2.26-2.06c0-1.23-.84-2.1-2.74-2.1a10.48,10.48,0,0,0-1.31.1l.61-4.56h4.55Z"/><path d="M431.43,104.32v1h-3.61v-1Z"/><path d="M438,100.16a4.74,4.74,0,0,0-1,0,3.88,3.88,0,0,0-3.31,3.38h.05a2.89,2.89,0,0,1,5.16,2,3.18,3.18,0,0,1-3.16,3.35c-2,0-3.36-1.58-3.36-4a6,6,0,0,1,1.6-4.28,5.13,5.13,0,0,1,3-1.4,6.22,6.22,0,0,1,.94-.08Zm-.37,5.48a1.93,1.93,0,0,0-1.95-2.18,2.12,2.12,0,0,0-1.85,1.17,1.17,1.17,0,0,0-.14.57c0,1.56.74,2.72,2.09,2.72C436.84,107.92,437.58,107,437.58,105.64Z"/><path d="M444,108.75v-2.59h-4.42v-.84l4.24-6.07h1.39v5.91h1.33v1h-1.33v2.59Zm0-3.59V102c0-.49,0-1,0-1.49h0c-.3.56-.53,1-.79,1.41l-2.33,3.23v0Z"/><path d="M455,108.75l-.1-.89h-.05a2.61,2.61,0,0,1-2.16,1,2,2,0,0,1-2.16-2c0-1.71,1.52-2.65,4.25-2.63v-.15a1.46,1.46,0,0,0-1.61-1.64,3.54,3.54,0,0,0-1.84.53l-.29-.85a4.37,4.37,0,0,1,2.32-.63c2.17,0,2.69,1.48,2.69,2.9v2.65a9.66,9.66,0,0,0,.12,1.69Zm-.19-3.61c-1.4,0-3,.22-3,1.59A1.14,1.14,0,0,0,453,108a1.76,1.76,0,0,0,1.71-1.18,1.47,1.47,0,0,0,.07-.41ZM452,99.57a1.38,1.38,0,0,1,1.49-1.39,1.35,1.35,0,0,1,1.44,1.38,1.47,1.47,0,0,1-2.93,0Zm2.22,0a.74.74,0,1,0-1.48,0,.74.74,0,1,0,1.48,0Z"/><path d="M458.09,103.88c0-.83,0-1.55-.06-2.2h1.13l0,1.38h.06a2.13,2.13,0,0,1,2-1.55,1.25,1.25,0,0,1,.36,0v1.21a1.85,1.85,0,0,0-.43,0,1.81,1.81,0,0,0-1.73,1.65,3.58,3.58,0,0,0-.06.6v3.77h-1.27Z"/><path d="M413,154.45v-.79l1-1c2.43-2.31,3.52-3.54,3.54-5a1.69,1.69,0,0,0-1.89-1.85,3.17,3.17,0,0,0-2,.8l-.41-.91a4.17,4.17,0,0,1,2.69-1,2.68,2.68,0,0,1,2.91,2.76c0,1.76-1.28,3.17-3.28,5.1l-.76.7v0h4.27v1.07Z"/><path d="M426.21,146h-3.63l-.36,2.44a4.9,4.9,0,0,1,.77-.06,4.06,4.06,0,0,1,2.05.52,2.71,2.71,0,0,1,1.36,2.44,3.3,3.3,0,0,1-3.54,3.24,4.67,4.67,0,0,1-2.37-.58l.32-1a4.33,4.33,0,0,0,2,.52,2.09,2.09,0,0,0,2.26-2.06c0-1.22-.84-2.1-2.74-2.1a10.48,10.48,0,0,0-1.31.1l.61-4.56h4.55Z"/><path d="M431.43,150V151h-3.61V150Z"/><path d="M436.5,154.45v-2.59h-4.41V151l4.24-6.07h1.39v5.91h1.33v1h-1.33v2.59Zm0-3.59v-3.18c0-.49,0-1,.05-1.49h-.05c-.29.56-.52,1-.79,1.41l-2.32,3.23v0Z"/><path d="M444,154.45v-2.59h-4.42V151l4.24-6.07h1.39v5.91h1.33v1h-1.33v2.59Zm0-3.59v-3.18c0-.49,0-1,0-1.49h0c-.3.56-.53,1-.79,1.41l-2.33,3.23v0Z"/><path d="M455,154.45l-.1-.89h-.05a2.61,2.61,0,0,1-2.16,1.05,2,2,0,0,1-2.16-2c0-1.71,1.52-2.65,4.25-2.63v-.15a1.46,1.46,0,0,0-1.61-1.63,3.53,3.53,0,0,0-1.84.52l-.29-.85a4.37,4.37,0,0,1,2.32-.63c2.17,0,2.69,1.48,2.69,2.9v2.65a9.66,9.66,0,0,0,.12,1.69Zm-.19-3.61c-1.4,0-3,.22-3,1.59a1.14,1.14,0,0,0,1.22,1.23,1.76,1.76,0,0,0,1.71-1.18,1.47,1.47,0,0,0,.07-.41ZM452,145.27a1.38,1.38,0,0,1,1.49-1.39,1.35,1.35,0,0,1,1.44,1.38,1.47,1.47,0,0,1-2.93,0Zm2.22,0a.74.74,0,1,0-1.48,0,.74.74,0,1,0,1.48,0Z"/><path d="M458.09,149.58c0-.83,0-1.55-.06-2.2h1.13l0,1.38h.06a2.13,2.13,0,0,1,2-1.55,1.25,1.25,0,0,1,.36,0v1.21a1.85,1.85,0,0,0-.43,0,1.81,1.81,0,0,0-1.73,1.65,3.58,3.58,0,0,0-.06.6v3.77h-1.27Z"/><path d="M415.83,191.85h0l-1.66.89-.24-1,2.07-1.11h1.1v9.5h-1.24Z"/><path d="M420.42,197.74a2.7,2.7,0,0,1,1.88-2.54v0a2.35,2.35,0,0,1-1.51-2.13,2.66,2.66,0,0,1,2.94-2.53c1.84,0,2.76,1.15,2.76,2.34a2.41,2.41,0,0,1-1.56,2.22v0a2.64,2.64,0,0,1,1.91,2.46c0,1.65-1.41,2.76-3.23,2.76C421.62,200.31,420.42,199.13,420.42,197.74Zm5.11-.06c0-1.15-.8-1.71-2.09-2.07a2.06,2.06,0,0,0-1.71,1.95,1.76,1.76,0,0,0,1.9,1.82A1.72,1.72,0,0,0,425.53,197.68ZM422,192.93c0,.95.71,1.46,1.81,1.75a1.86,1.86,0,0,0,1.45-1.72,1.48,1.48,0,0,0-1.61-1.55A1.51,1.51,0,0,0,422,192.93Z"/><path d="M431.43,195.72v.95h-3.61v-.95Z"/><path d="M432.53,200.15v-.79l1-1c2.42-2.31,3.52-3.54,3.53-5a1.69,1.69,0,0,0-1.88-1.85,3.23,3.23,0,0,0-2,.8l-.41-.91a4.19,4.19,0,0,1,2.69-1,2.67,2.67,0,0,1,2.91,2.76c0,1.76-1.27,3.17-3.28,5.1l-.75.7v0h4.26v1.07Z"/><path d="M444,200.15v-2.59h-4.42v-.84l4.24-6.07h1.39v5.91h1.33v1h-1.33v2.59Zm0-3.59v-3.18c0-.49,0-1,0-1.49h0c-.3.56-.53,1-.79,1.41l-2.33,3.23v0Z"/><path d="M455,200.15l-.1-.89h-.05a2.61,2.61,0,0,1-2.16,1.05,2,2,0,0,1-2.16-2c0-1.71,1.52-2.65,4.25-2.63v-.15a1.46,1.46,0,0,0-1.61-1.63,3.53,3.53,0,0,0-1.84.52l-.29-.85a4.37,4.37,0,0,1,2.32-.62c2.17,0,2.69,1.47,2.69,2.89v2.65a9.66,9.66,0,0,0,.12,1.69Zm-.19-3.61c-1.4,0-3,.22-3,1.59a1.14,1.14,0,0,0,1.22,1.23,1.76,1.76,0,0,0,1.71-1.18,1.47,1.47,0,0,0,.07-.41ZM452,191a1.38,1.38,0,0,1,1.49-1.39,1.35,1.35,0,0,1,1.44,1.38,1.47,1.47,0,0,1-2.93,0Zm2.22,0a.74.74,0,1,0-1.48,0,.74.74,0,1,0,1.48,0Z"/><path d="M458.09,195.28c0-.83,0-1.55-.06-2.2h1.13l0,1.38h.06a2.12,2.12,0,0,1,2-1.54,1.28,1.28,0,0,1,.36,0v1.21a1.85,1.85,0,0,0-.43,0,1.81,1.81,0,0,0-1.73,1.65,3.58,3.58,0,0,0-.06.6v3.77h-1.27Z"/><path d="M419.35,241c0,3.23-1.2,5-3.31,5-1.85,0-3.11-1.74-3.14-4.88s1.38-4.94,3.31-4.94S419.35,238,419.35,241Zm-5.16.14c0,2.47.76,3.88,1.93,3.88s1.94-1.54,1.94-4-.6-3.88-1.93-3.88C415,237.18,414.19,238.56,414.19,241.14Z"/><path d="M423.93,241.42v1h-3.61v-1Z"/><path d="M427.82,237.55h0l-1.65.89-.25-1,2.07-1.11h1.1v9.5h-1.24Z"/><path d="M438.7,236.35v.85l-4.14,8.65h-1.33l4.12-8.4v0H432.7v-1.07Z"/><path d="M447.46,245.85l-.1-.89h-.05a2.63,2.63,0,0,1-2.16,1,2,2,0,0,1-2.17-2c0-1.71,1.52-2.65,4.26-2.63v-.15a1.46,1.46,0,0,0-1.61-1.64,3.54,3.54,0,0,0-1.84.53l-.29-.85a4.37,4.37,0,0,1,2.32-.63c2.16,0,2.69,1.48,2.69,2.9v2.65a9.66,9.66,0,0,0,.12,1.69Zm-.19-3.61c-1.41,0-3,.22-3,1.59a1.14,1.14,0,0,0,1.21,1.23,1.74,1.74,0,0,0,1.71-1.18,1.19,1.19,0,0,0,.08-.41Zm-2.77-5.57a1.39,1.39,0,0,1,1.5-1.39,1.36,1.36,0,0,1,1.44,1.38,1.48,1.48,0,0,1-2.94,0Zm2.23,0a.76.76,0,0,0-.76-.8.75.75,0,0,0-.72.83.74.74,0,1,0,1.48,0Z"/><path d="M450.59,241c0-.83,0-1.55-.06-2.2h1.13l0,1.38h.06a2.12,2.12,0,0,1,2-1.55,1.36,1.36,0,0,1,.36,0v1.21a1.89,1.89,0,0,0-.44,0,1.79,1.79,0,0,0-1.72,1.65,3.58,3.58,0,0,0-.06.6v3.77h-1.27Z"/></svg>