<svg id="Layer_1" data-name="Layer 1" xmlns="http://www.w3.org/2000/svg" viewBox="0 0 526 370"><defs><style>.cls-1{fill:none;}.cls-1,.cls-10,.cls-2,.cls-4,.cls-6,.cls-8{stroke:#000;stroke-miterlimit:10;}.cls-2,.cls-3{fill:#009245;}.cls-10,.cls-2,.cls-4,.cls-6,.cls-8{stroke-width:0.5px;}.cls-4,.cls-5{fill:#00a99d;}.cls-6,.cls-7{fill:#999;}.cls-8,.cls-9{fill:#8cc63f;}.cls-10,.cls-11{fill:#22b573;}</style></defs><title>Artboard 1</title><line class="cls-1" x1="33" y1="346.67" x2="345" y2="346.67"/><line class="cls-1" x1="33" y1="346.67" x2="33" y2="339.05"/><line class="cls-1" x1="345" y1="346.67" x2="345" y2="339.05"/><path d="M27.6,347.3c0,3.23-1.2,5-3.31,5-1.85,0-3.11-1.74-3.14-4.88s1.37-4.94,3.3-4.94S27.6,344.27,27.6,347.3Zm-5.16.14c0,2.48.76,3.88,1.92,3.88,1.32,0,1.95-1.54,1.95-4s-.6-3.88-1.93-3.88C23.25,343.48,22.44,344.86,22.44,347.44Z"/><path d="M16.57,282.92h0l-1.65.89-.25-1,2.08-1.11h1.09v9.5H16.57Z"/><path d="M27.6,286.36c0,3.23-1.2,5-3.31,5-1.85,0-3.11-1.74-3.14-4.88s1.37-4.94,3.3-4.94S27.6,283.34,27.6,286.36Zm-5.16.15c0,2.47.76,3.87,1.92,3.87,1.32,0,1.95-1.53,1.95-4s-.6-3.87-1.93-3.87C23.25,282.55,22.44,283.92,22.44,286.51Z"/><path d="M13.78,230.29v-.79l1-1c2.42-2.31,3.52-3.54,3.53-5a1.69,1.69,0,0,0-1.88-1.86,3.28,3.28,0,0,0-2,.8l-.41-.9a4.15,4.15,0,0,1,2.69-1,2.68,2.68,0,0,1,2.91,2.77c0,1.75-1.27,3.17-3.27,5.1l-.76.7v0h4.26v1.07Z"/><path d="M27.6,225.43c0,3.23-1.2,5-3.31,5-1.85,0-3.11-1.74-3.14-4.89s1.37-4.94,3.3-4.94S27.6,222.41,27.6,225.43Zm-5.16.15c0,2.47.76,3.87,1.92,3.87,1.32,0,1.95-1.53,1.95-4s-.6-3.87-1.93-3.87C23.25,221.62,22.44,223,22.44,225.58Z"/><path d="M14.08,167.88a4.4,4.4,0,0,0,2.11.59c1.65,0,2.16-1.05,2.15-1.84,0-1.33-1.21-1.9-2.46-1.9h-.71v-1h.71c.94,0,2.12-.48,2.12-1.61,0-.76-.48-1.43-1.66-1.43a3.43,3.43,0,0,0-1.9.63l-.34-.94a4.48,4.48,0,0,1,2.48-.73c1.88,0,2.72,1.11,2.72,2.27a2.35,2.35,0,0,1-1.75,2.23v0a2.47,2.47,0,0,1,2.12,2.44c0,1.52-1.19,2.85-3.47,2.85a4.83,4.83,0,0,1-2.47-.64Z"/><path d="M27.6,164.5c0,3.23-1.2,5-3.31,5-1.85,0-3.11-1.74-3.14-4.88s1.37-4.94,3.3-4.94S27.6,161.47,27.6,164.5Zm-5.16.14c0,2.48.76,3.88,1.92,3.88,1.32,0,1.95-1.54,1.95-4s-.6-3.88-1.93-3.88C23.25,160.68,22.44,162.06,22.44,164.64Z"/><path d="M17.75,108.42v-2.59H13.34V105l4.24-6.06H19v5.9H20.3v1H19v2.59Zm0-3.6v-3.17c0-.5,0-1,.05-1.49h-.05c-.29.55-.52,1-.79,1.4l-2.32,3.23v0Z"/><path d="M27.6,103.56c0,3.23-1.2,5-3.31,5-1.85,0-3.11-1.74-3.14-4.88s1.37-4.94,3.3-4.94S27.6,100.54,27.6,103.56Zm-5.16.15c0,2.47.76,3.87,1.92,3.87,1.32,0,1.95-1.53,1.95-4s-.6-3.87-1.93-3.87C23.25,99.75,22.44,101.12,22.44,103.71Z"/><path d="M19.45,39.06H15.82l-.36,2.45a4.9,4.9,0,0,1,.77-.06,4,4,0,0,1,2.05.51,2.69,2.69,0,0,1,1.36,2.44,3.3,3.3,0,0,1-3.54,3.25,4.69,4.69,0,0,1-2.37-.59l.33-1a4.28,4.28,0,0,0,2,.53,2.1,2.1,0,0,0,2.25-2.06c0-1.23-.83-2.11-2.74-2.11a10.48,10.48,0,0,0-1.31.1L14.9,38h4.55Z"/><path d="M27.6,42.63c0,3.23-1.2,5-3.31,5-1.85,0-3.11-1.74-3.14-4.89s1.37-4.94,3.3-4.94S27.6,39.61,27.6,42.63Zm-5.16.15c0,2.47.76,3.87,1.92,3.87,1.32,0,1.95-1.53,1.95-4s-.6-3.87-1.93-3.87C23.25,38.82,22.44,40.19,22.44,42.78Z"/><line class="cls-1" x1="33" y1="346.67" x2="33" y2="42"/><line class="cls-1" x1="33" y1="346.67" x2="40.8" y2="346.67"/><line class="cls-1" x1="33" y1="285.73" x2="40.8" y2="285.73"/><line class="cls-1" x1="33" y1="224.8" x2="40.8" y2="224.8"/><line class="cls-1" x1="33" y1="163.87" x2="40.8" y2="163.87"/><line class="cls-1" x1="33" y1="102.93" x2="40.8" y2="102.93"/><line class="cls-1" x1="33" y1="42" x2="40.8" y2="42"/><rect class="cls-2" x="368.5" y="42" width="39" height="30.47"/><rect class="cls-3" x="266.38" y="42" width="44.93" height="304.67"/><rect class="cls-4" x="368.5" y="87.7" width="39" height="30.47"/><rect class="cls-5" x="216.46" y="48.09" width="44.93" height="298.57"/><rect class="cls-6" x="368.5" y="133.4" width="39" height="30.47"/><rect class="cls-7" x="166.54" y="90.75" width="44.93" height="255.92"/><rect class="cls-8" x="368.5" y="179.1" width="39" height="30.47"/><rect class="cls-9" x="116.62" y="243.08" width="44.93" height="103.59"/><rect class="cls-10" x="368.5" y="224.8" width="39" height="30.47"/><rect class="cls-11" x="66.7" y="273.55" width="44.93" height="73.12"/><path d="M418.46,54.12a4.92,4.92,0,0,0-1,.06,3.86,3.86,0,0,0-3.3,3.38h0a2.89,2.89,0,0,1,5.16,2,3.18,3.18,0,0,1-3.16,3.35c-2,0-3.36-1.58-3.36-4.05a5.94,5.94,0,0,1,1.61-4.28,5.17,5.17,0,0,1,3-1.41,5.92,5.92,0,0,1,.94-.07Zm-.37,5.48a1.92,1.92,0,0,0-2-2.17,2.11,2.11,0,0,0-1.84,1.17,1,1,0,0,0-.15.57c0,1.56.75,2.71,2.09,2.71C417.34,61.88,418.09,61,418.09,59.6Z"/><path d="M426.21,54.3h-3.63l-.36,2.44a4.9,4.9,0,0,1,.77-.06,4.05,4.05,0,0,1,2.05.51,2.72,2.72,0,0,1,1.36,2.44,3.3,3.3,0,0,1-3.54,3.25,4.56,4.56,0,0,1-2.37-.59l.32-1a4.2,4.2,0,0,0,2,.53,2.1,2.1,0,0,0,2.26-2.06c0-1.23-.84-2.11-2.74-2.11a8.68,8.68,0,0,0-1.31.11l.61-4.56h4.55Z"/><path d="M435.46,62.72l-.1-.89h0a2.66,2.66,0,0,1-2.16,1.05,2,2,0,0,1-2.17-2c0-1.71,1.52-2.65,4.26-2.63v-.15a1.46,1.46,0,0,0-1.61-1.64,3.51,3.51,0,0,0-1.84.53l-.3-.85a4.43,4.43,0,0,1,2.33-.63c2.16,0,2.69,1.48,2.69,2.9V61a10.86,10.86,0,0,0,.11,1.7Zm-.18-3.61c-1.41,0-3,.22-3,1.59a1.14,1.14,0,0,0,1.21,1.23,1.76,1.76,0,0,0,1.71-1.19,1.15,1.15,0,0,0,.08-.41Zm-2.77-5.57A1.38,1.38,0,0,1,434,52.15a1.36,1.36,0,0,1,1.45,1.37,1.48,1.48,0,0,1-2.94,0Zm2.22,0a.76.76,0,0,0-.76-.81.75.75,0,0,0-.71.84.74.74,0,1,0,1.47,0Z"/><path d="M438.6,57.85c0-.83,0-1.55-.06-2.21h1.12l0,1.39h.06a2.11,2.11,0,0,1,2-1.55,1.38,1.38,0,0,1,.37.05v1.21a1.89,1.89,0,0,0-.44,0,1.79,1.79,0,0,0-1.72,1.65,3.47,3.47,0,0,0-.06.6v3.77H438.6Z"/><path d="M452.88,59.12a3.46,3.46,0,0,1-3.52,3.76A3.36,3.36,0,0,1,446,59.24a3.46,3.46,0,0,1,3.51-3.76A3.35,3.35,0,0,1,452.88,59.12Zm-5.61.07c0,1.55.89,2.72,2.15,2.72s2.15-1.15,2.15-2.74c0-1.2-.6-2.72-2.12-2.72S447.27,57.85,447.27,59.19Z"/><path d="M460.6,55.64c0,.51-.05,1.08-.05,2v4.1c0,1.63-.33,2.62-1,3.24a3.77,3.77,0,0,1-2.58.84,4.57,4.57,0,0,1-2.35-.58l.32-1a4,4,0,0,0,2.08.55c1.31,0,2.28-.68,2.28-2.47V61.5h0A2.54,2.54,0,0,1,457,62.69a3.16,3.16,0,0,1-3-3.45c0-2.4,1.56-3.76,3.18-3.76a2.37,2.37,0,0,1,2.21,1.23h0l.06-1.07Zm-1.33,2.79a1.81,1.81,0,0,0-.07-.58,1.84,1.84,0,0,0-1.8-1.36c-1.23,0-2.1,1-2.1,2.68,0,1.38.7,2.54,2.09,2.54a1.88,1.88,0,0,0,1.78-1.32,2,2,0,0,0,.1-.68Z"/><path d="M471.89,52.34v8.55c0,.63,0,1.35.06,1.83H470.8l-.06-1.23h0a2.61,2.61,0,0,1-2.41,1.39c-1.71,0-3-1.45-3-3.6,0-2.35,1.45-3.8,3.17-3.8a2.36,2.36,0,0,1,2.14,1.08h0V52.34Zm-1.28,6.18a2.48,2.48,0,0,0-.06-.54,1.89,1.89,0,0,0-1.86-1.49c-1.33,0-2.12,1.17-2.12,2.73s.71,2.62,2.09,2.62a1.93,1.93,0,0,0,1.89-1.53,2.47,2.47,0,0,0,.06-.56Z"/><path d="M474.75,59.41a2.27,2.27,0,0,0,2.42,2.46,4.53,4.53,0,0,0,2-.37l.22.93a5.79,5.79,0,0,1-2.35.43,3.28,3.28,0,0,1-3.48-3.56c0-2.14,1.26-3.82,3.32-3.82,2.31,0,2.92,2,2.92,3.33,0,.27,0,.47,0,.6Zm3.77-.92a1.84,1.84,0,0,0-1.78-2.09,2.15,2.15,0,0,0-2,2.09Z"/><path d="M481.36,57.85c0-.83,0-1.55-.06-2.21h1.13l0,1.39h.06a2.13,2.13,0,0,1,2-1.55,1.3,1.3,0,0,1,.36.05v1.21a1.89,1.89,0,0,0-.44,0,1.8,1.8,0,0,0-1.72,1.65,3.47,3.47,0,0,0-.06.6v3.77h-1.27Z"/><path d="M492.4,59.12a3.46,3.46,0,0,1-3.52,3.76,3.37,3.37,0,0,1-3.4-3.64A3.46,3.46,0,0,1,489,55.48,3.36,3.36,0,0,1,492.4,59.12Zm-5.62.07c0,1.55.9,2.72,2.15,2.72s2.15-1.15,2.15-2.74c0-1.2-.6-2.72-2.12-2.72S486.78,57.85,486.78,59.19Z"/><path d="M494.42,55.64l1.39,4c.23.64.42,1.23.57,1.81h0c.16-.58.37-1.17.6-1.81l1.38-4h1.34L497,62.72h-1.22l-2.69-7.08Z"/><path d="M501.53,59.41A2.27,2.27,0,0,0,504,61.87a4.56,4.56,0,0,0,2-.37l.22.93a5.83,5.83,0,0,1-2.35.43,3.28,3.28,0,0,1-3.48-3.56c0-2.14,1.26-3.82,3.32-3.82,2.31,0,2.92,2,2.92,3.33,0,.27,0,.47,0,.6Zm3.77-.92a1.84,1.84,0,0,0-1.79-2.09,2.13,2.13,0,0,0-2,2.09Z"/><path d="M508.14,57.85c0-.83,0-1.55-.06-2.21h1.12l.05,1.39h.06a2.12,2.12,0,0,1,2-1.55,1.36,1.36,0,0,1,.36.05v1.21a1.89,1.89,0,0,0-.44,0,1.79,1.79,0,0,0-1.72,1.65,3.47,3.47,0,0,0-.06.6v3.77h-1.27Z"/><path d="M417,108.42v-2.59h-4.42V105l4.24-6.06h1.39v5.9h1.33v1h-1.33v2.59Zm0-3.6v-3.17c0-.5,0-1,0-1.49h0c-.29.55-.53,1-.79,1.4l-2.32,3.23v0Z"/><path d="M426.21,100h-3.63l-.36,2.44a4.9,4.9,0,0,1,.77-.06,4.05,4.05,0,0,1,2.05.51,2.72,2.72,0,0,1,1.36,2.44,3.3,3.3,0,0,1-3.54,3.25,4.56,4.56,0,0,1-2.37-.59l.32-1a4.2,4.2,0,0,0,2,.53,2.1,2.1,0,0,0,2.26-2.06c0-1.23-.84-2.1-2.74-2.1a8.86,8.86,0,0,0-1.31.1l.61-4.56h4.55Z"/><path d="M431.43,104v1h-3.61v-1Z"/><path d="M438,99.82a4.83,4.83,0,0,0-1,.06,3.87,3.87,0,0,0-3.31,3.38h.05a2.89,2.89,0,0,1,5.16,2,3.18,3.18,0,0,1-3.16,3.35c-2,0-3.36-1.58-3.36-4a6,6,0,0,1,1.6-4.28,5.2,5.2,0,0,1,3-1.41,7.54,7.54,0,0,1,.94-.07Zm-.37,5.48a1.92,1.92,0,0,0-1.95-2.17,2.12,2.12,0,0,0-1.85,1.17,1.14,1.14,0,0,0-.14.57c0,1.56.74,2.71,2.09,2.71C436.84,107.58,437.58,106.66,437.58,105.3Z"/><path d="M444,108.42v-2.59h-4.42V105l4.24-6.06h1.39v5.9h1.33v1h-1.33v2.59Zm0-3.6v-3.17c0-.5,0-1,0-1.49h0c-.3.55-.53,1-.79,1.4l-2.33,3.23v0Z"/><path d="M455,108.42l-.1-.89h-.05a2.63,2.63,0,0,1-2.16,1,2,2,0,0,1-2.16-2c0-1.71,1.52-2.65,4.25-2.63v-.15a1.46,1.46,0,0,0-1.61-1.64,3.54,3.54,0,0,0-1.84.53l-.29-.85a4.37,4.37,0,0,1,2.32-.63c2.17,0,2.69,1.48,2.69,2.9v2.64a9.7,9.7,0,0,0,.12,1.7Zm-.19-3.61c-1.4,0-3,.22-3,1.59a1.15,1.15,0,0,0,1.22,1.23,1.77,1.77,0,0,0,1.71-1.19,1.4,1.4,0,0,0,.07-.4ZM452,99.24a1.38,1.38,0,0,1,1.49-1.39,1.35,1.35,0,0,1,1.44,1.37,1.47,1.47,0,0,1-2.93,0Zm2.22,0a.74.74,0,1,0-1.48,0,.74.74,0,1,0,1.48,0Z"/><path d="M458.09,103.55c0-.83,0-1.55-.06-2.21h1.13l0,1.39h.06a2.13,2.13,0,0,1,2-1.55,1.25,1.25,0,0,1,.36,0v1.21a1.85,1.85,0,0,0-.43,0,1.8,1.8,0,0,0-1.73,1.65,3.47,3.47,0,0,0-.06.6v3.77h-1.27Z"/><path d="M413,154.12v-.79l1-1c2.43-2.31,3.52-3.54,3.54-5a1.7,1.7,0,0,0-1.89-1.86,3.18,3.18,0,0,0-2,.81l-.41-.91a4.17,4.17,0,0,1,2.69-1,2.68,2.68,0,0,1,2.91,2.76c0,1.75-1.28,3.17-3.28,5.1l-.76.7v0h4.27v1.07Z"/><path d="M426.21,145.7h-3.63l-.36,2.44a4.9,4.9,0,0,1,.77-.06,4.05,4.05,0,0,1,2.05.51A2.72,2.72,0,0,1,426.4,151a3.3,3.3,0,0,1-3.54,3.25,4.56,4.56,0,0,1-2.37-.59l.32-1a4.2,4.2,0,0,0,2,.53,2.1,2.1,0,0,0,2.26-2.06c0-1.23-.84-2.1-2.74-2.1a8.86,8.86,0,0,0-1.31.1l.61-4.56h4.55Z"/><path d="M431.43,149.69v.95h-3.61v-.95Z"/><path d="M436.5,154.12v-2.59h-4.41v-.85l4.24-6.06h1.39v5.9h1.33v1h-1.33v2.59Zm0-3.6v-3.17c0-.5,0-1,.05-1.49h-.05c-.29.55-.52,1-.79,1.4l-2.32,3.23v0Z"/><path d="M444,154.12v-2.59h-4.42v-.85l4.24-6.06h1.39v5.9h1.33v1h-1.33v2.59Zm0-3.6v-3.17c0-.5,0-1,0-1.49h0c-.3.55-.53,1-.79,1.4l-2.33,3.23v0Z"/><path d="M455,154.12l-.1-.89h-.05a2.63,2.63,0,0,1-2.16,1.05,2,2,0,0,1-2.16-2c0-1.71,1.52-2.65,4.25-2.63v-.15a1.46,1.46,0,0,0-1.61-1.64,3.54,3.54,0,0,0-1.84.53l-.29-.85a4.37,4.37,0,0,1,2.32-.63c2.17,0,2.69,1.48,2.69,2.9v2.64a9.7,9.7,0,0,0,.12,1.7Zm-.19-3.61c-1.4,0-3,.22-3,1.59a1.15,1.15,0,0,0,1.22,1.23,1.77,1.77,0,0,0,1.71-1.19,1.4,1.4,0,0,0,.07-.4ZM452,144.94a1.38,1.38,0,0,1,1.49-1.39,1.35,1.35,0,0,1,1.44,1.37,1.47,1.47,0,0,1-2.93,0Zm2.22,0a.74.74,0,1,0-1.48,0,.74.74,0,1,0,1.48,0Z"/><path d="M458.09,149.25c0-.83,0-1.55-.06-2.21h1.13l0,1.39h.06a2.13,2.13,0,0,1,2-1.55,1.25,1.25,0,0,1,.36.05v1.21a1.85,1.85,0,0,0-.43,0,1.8,1.8,0,0,0-1.73,1.65,3.47,3.47,0,0,0-.06.6v3.77h-1.27Z"/><path d="M415.83,191.52h0l-1.66.89-.24-1,2.07-1.11h1.1v9.5h-1.24Z"/><path d="M420.42,197.41a2.72,2.72,0,0,1,1.88-2.55v0a2.37,2.37,0,0,1-1.51-2.14,2.66,2.66,0,0,1,2.94-2.52c1.84,0,2.76,1.15,2.76,2.34a2.41,2.41,0,0,1-1.56,2.22v0a2.64,2.64,0,0,1,1.91,2.46c0,1.65-1.41,2.76-3.23,2.76C421.62,200,420.42,198.79,420.42,197.41Zm5.11-.06c0-1.16-.8-1.71-2.09-2.08a2.06,2.06,0,0,0-1.71,2,1.76,1.76,0,0,0,1.9,1.81A1.71,1.71,0,0,0,425.53,197.35ZM422,192.6c0,1,.71,1.46,1.81,1.75a1.87,1.87,0,0,0,1.45-1.72,1.48,1.48,0,0,0-1.61-1.55A1.51,1.51,0,0,0,422,192.6Z"/><path d="M431.43,195.39v1h-3.61v-1Z"/><path d="M432.53,199.82V199l1-1c2.42-2.31,3.52-3.54,3.53-5a1.69,1.69,0,0,0-1.88-1.86,3.23,3.23,0,0,0-2,.81l-.41-.91a4.19,4.19,0,0,1,2.69-1,2.67,2.67,0,0,1,2.91,2.76c0,1.75-1.27,3.17-3.28,5.1l-.75.7v0h4.26v1.07Z"/><path d="M444,199.82v-2.59h-4.42v-.85l4.24-6.06h1.39v5.9h1.33v1h-1.33v2.59Zm0-3.6v-3.17c0-.5,0-1,0-1.49h0c-.3.55-.53,1-.79,1.4l-2.33,3.23v0Z"/><path d="M455,199.82l-.1-.89h-.05a2.63,2.63,0,0,1-2.16,1,2,2,0,0,1-2.16-2c0-1.71,1.52-2.65,4.25-2.63v-.15a1.46,1.46,0,0,0-1.61-1.64,3.54,3.54,0,0,0-1.84.53l-.29-.85a4.37,4.37,0,0,1,2.32-.63c2.17,0,2.69,1.48,2.69,2.9v2.64a9.7,9.7,0,0,0,.12,1.7Zm-.19-3.61c-1.4,0-3,.22-3,1.59A1.15,1.15,0,0,0,453,199a1.77,1.77,0,0,0,1.71-1.19,1.4,1.4,0,0,0,.07-.4ZM452,190.64a1.38,1.38,0,0,1,1.49-1.39,1.35,1.35,0,0,1,1.44,1.37,1.47,1.47,0,0,1-2.93,0Zm2.22,0a.74.74,0,1,0-1.48,0,.74.74,0,1,0,1.48,0Z"/><path d="M458.09,195c0-.83,0-1.55-.06-2.21h1.13l0,1.39h.06a2.13,2.13,0,0,1,2-1.55,1.25,1.25,0,0,1,.36,0v1.21a1.85,1.85,0,0,0-.43,0,1.8,1.8,0,0,0-1.73,1.65,3.47,3.47,0,0,0-.06.6v3.77h-1.27Z"/><path d="M419.35,240.66c0,3.23-1.2,5-3.31,5-1.85,0-3.11-1.74-3.14-4.88s1.38-4.94,3.31-4.94S419.35,237.64,419.35,240.66Zm-5.16.15c0,2.47.76,3.87,1.93,3.87s1.94-1.53,1.94-4-.6-3.87-1.93-3.87C415,236.85,414.19,238.22,414.19,240.81Z"/><path d="M423.93,241.09V242h-3.61v-.95Z"/><path d="M427.82,237.21h0l-1.65.9-.25-1L428,236h1.1v9.5h-1.24Z"/><path d="M438.7,236v.84l-4.14,8.66h-1.33l4.12-8.41v0H432.7V236Z"/><path d="M447.46,245.52l-.1-.89h-.05a2.63,2.63,0,0,1-2.16,1.05,2,2,0,0,1-2.17-2c0-1.71,1.52-2.65,4.26-2.63v-.15a1.46,1.46,0,0,0-1.61-1.64,3.54,3.54,0,0,0-1.84.53l-.29-.85a4.37,4.37,0,0,1,2.32-.63c2.16,0,2.69,1.48,2.69,2.9v2.64a9.7,9.7,0,0,0,.12,1.7Zm-.19-3.61c-1.41,0-3,.22-3,1.59a1.14,1.14,0,0,0,1.21,1.23,1.75,1.75,0,0,0,1.71-1.19,1.15,1.15,0,0,0,.08-.41Zm-2.77-5.57A1.38,1.38,0,0,1,446,235a1.35,1.35,0,0,1,1.44,1.37,1.48,1.48,0,0,1-2.94,0Zm2.23,0a.77.77,0,0,0-.76-.81.75.75,0,0,0-.72.84.74.74,0,1,0,1.48,0Z"/><path d="M450.59,240.65c0-.83,0-1.55-.06-2.21h1.13l0,1.39h.06a2.12,2.12,0,0,1,2-1.55,1.36,1.36,0,0,1,.36.05v1.21a1.89,1.89,0,0,0-.44,0,1.79,1.79,0,0,0-1.72,1.65,3.47,3.47,0,0,0-.06.6v3.77h-1.27Z"/><path d="M46.34,11.7a26.89,26.89,0,0,1,4.07-.31c2.75,0,4.71.64,6,1.85a6.84,6.84,0,0,1,2.09,5.33,7.81,7.81,0,0,1-2.14,5.76c-1.38,1.39-3.67,2.13-6.55,2.13a31.07,31.07,0,0,1-3.48-.17Zm1.91,13.11a11.94,11.94,0,0,0,1.94.11c4.09,0,6.31-2.28,6.31-6.29,0-3.5-2-5.72-6-5.72a10.94,10.94,0,0,0-2.25.2Z"/><path d="M60.93,19c0-1.26,0-2.34-.09-3.33h1.69l.07,2.09h.09a3.19,3.19,0,0,1,2.94-2.33,1.84,1.84,0,0,1,.55.07v1.82a3.1,3.1,0,0,0-.66-.06,2.71,2.71,0,0,0-2.59,2.48,5,5,0,0,0-.09.91v5.67H60.93Z"/><path d="M75.42,21.21c-.06,2.53,1.39,3.87,3.39,3.87a6.16,6.16,0,0,0,2.91-.62l.35,1.37a7.6,7.6,0,0,1-3.5.75,4.22,4.22,0,0,1-4-2.36h0a4.18,4.18,0,0,1-4,2.36,3,3,0,0,1-3.33-3c0-2.47,2.29-3.9,6.43-3.85v-.44a2.36,2.36,0,0,0-2.49-2.38,5.15,5.15,0,0,0-2.72.82l-.47-1.28a6.83,6.83,0,0,1,3.33-1,3.24,3.24,0,0,1,3.43,2.27h0a4.06,4.06,0,0,1,3.72-2.27c3.26,0,4.16,3.15,4.16,4.91a4.07,4.07,0,0,1-.07.86ZM73.64,21c-2,0-4.53.3-4.53,2.39A1.73,1.73,0,0,0,71,25.15a2.61,2.61,0,0,0,2.57-1.83,2.21,2.21,0,0,0,.11-.77Zm7.11-1.17c.06-1.08-.53-3-2.49-3a3,3,0,0,0-2.86,3Z"/><path d="M84.93,26.33c0-.72.09-1.8.09-2.75V10.71h1.91V17.4h0a4,4,0,0,1,3.63-2c2.64,0,4.51,2.2,4.49,5.44,0,3.8-2.4,5.7-4.77,5.7a3.81,3.81,0,0,1-3.57-2h-.06l-.09,1.76Zm2-4.27a3.21,3.21,0,0,0,.09.71A3,3,0,0,0,89.92,25c2,0,3.24-1.65,3.24-4.09,0-2.13-1.1-4-3.17-4A3.09,3.09,0,0,0,87,19.36a4.06,4.06,0,0,0-.11.79Z"/><path d="M99.86,12.63v3h2.78v1.48H99.86V22.9c0,1.32.38,2.07,1.46,2.07a4.62,4.62,0,0,0,1.12-.13l.09,1.45a4.89,4.89,0,0,1-1.72.26,2.67,2.67,0,0,1-2.09-.81A3.94,3.94,0,0,1,98,23V17.16H96.32V15.68H98V13.13Z"/><path d="M105.76,21.36a3.41,3.41,0,0,0,3.65,3.7,7.1,7.1,0,0,0,3-.55l.33,1.38a8.59,8.59,0,0,1-3.54.66c-3.28,0-5.24-2.15-5.24-5.37s1.89-5.74,5-5.74c3.47,0,4.4,3.06,4.4,5a7.65,7.65,0,0,1-.07.9ZM111.44,20c0-1.23-.51-3.14-2.69-3.14-2,0-2.81,1.8-3,3.14Z"/><path d="M122.52,12.69a1.2,1.2,0,0,1-2.39,0,1.18,1.18,0,0,1,1.21-1.21A1.15,1.15,0,0,1,122.52,12.69Zm-2.15,13.64V15.68h1.93V26.33Z"/><path d="M130.38,26.33V17.16h-1.5V15.68h1.5v-.5a5,5,0,0,1,1.23-3.72,3.68,3.68,0,0,1,2.6-1,4.4,4.4,0,0,1,1.65.31l-.27,1.49a2.89,2.89,0,0,0-1.23-.24c-1.65,0-2.07,1.45-2.07,3.08v.57h2.58v1.48h-2.58v9.17Z"/><path d="M144,21.21c-.07,2.53,1.39,3.87,3.39,3.87a6.11,6.11,0,0,0,2.9-.62l.35,1.37a7.56,7.56,0,0,1-3.49.75,4.2,4.2,0,0,1-4-2.36h-.05a4.17,4.17,0,0,1-4,2.36,3,3,0,0,1-3.32-3c0-2.47,2.29-3.9,6.42-3.85v-.44a2.36,2.36,0,0,0-2.48-2.38,5.21,5.21,0,0,0-2.73.82l-.46-1.28a6.76,6.76,0,0,1,3.32-1,3.24,3.24,0,0,1,3.43,2.27h.05a4,4,0,0,1,3.71-2.27c3.26,0,4.16,3.15,4.16,4.91a5,5,0,0,1-.06.86ZM142.24,21c-2.05,0-4.54.3-4.54,2.39a1.73,1.73,0,0,0,1.85,1.77,2.61,2.61,0,0,0,2.58-1.83,2.47,2.47,0,0,0,.11-.77Zm7.1-1.17c.07-1.08-.52-3-2.48-3a3,3,0,0,0-2.86,3Z"/><path d="M153.61,19c0-1.26,0-2.34-.09-3.33h1.7l.06,2.09h.09a3.19,3.19,0,0,1,2.95-2.33,1.88,1.88,0,0,1,.55.07v1.82a3.23,3.23,0,0,0-.66-.06,2.72,2.72,0,0,0-2.6,2.48,6.09,6.09,0,0,0-.09.91v5.67h-1.91Z"/><path d="M169.78,10.71V23.58c0,1,0,2,.09,2.75h-1.74L168,24.48h0a4,4,0,0,1-3.63,2.1c-2.58,0-4.56-2.18-4.56-5.42,0-3.54,2.18-5.72,4.78-5.72a3.55,3.55,0,0,1,3.21,1.63h0V10.71ZM167.84,20a3.86,3.86,0,0,0-.08-.82A2.86,2.86,0,0,0,165,17c-2,0-3.19,1.76-3.19,4.11,0,2.16,1.06,3.94,3.15,3.94a2.92,2.92,0,0,0,2.84-2.31,3.65,3.65,0,0,0,.08-.83Z"/><path d="M172.73,24.35a5,5,0,0,0,2.55.77c1.41,0,2.07-.7,2.07-1.58s-.55-1.43-2-2c-1.92-.68-2.82-1.74-2.82-3,0-1.72,1.39-3.13,3.68-3.13a5.31,5.31,0,0,1,2.61.66l-.48,1.41a4.19,4.19,0,0,0-2.18-.62c-1.14,0-1.78.66-1.78,1.46s.64,1.27,2,1.8c1.85.7,2.8,1.63,2.8,3.21,0,1.87-1.45,3.19-4,3.19a6.1,6.1,0,0,1-3-.72Z"/><path d="M182.78,21.36a3.42,3.42,0,0,0,3.65,3.7,7.1,7.1,0,0,0,2.95-.55l.33,1.38a8.59,8.59,0,0,1-3.54.66c-3.28,0-5.24-2.15-5.24-5.37s1.9-5.74,5-5.74c3.47,0,4.4,3.06,4.4,5a7.65,7.65,0,0,1-.07.9ZM188.46,20c0-1.23-.51-3.14-2.69-3.14-2,0-2.81,1.8-3,3.14Z"/><path d="M192.72,10.71h1.94V26.33h-1.94Z"/><path d="M197.65,24.35a5,5,0,0,0,2.56.77c1.4,0,2.06-.7,2.06-1.58s-.55-1.43-2-2c-1.91-.68-2.81-1.74-2.81-3,0-1.72,1.38-3.13,3.67-3.13a5.33,5.33,0,0,1,2.62.66l-.48,1.41a4.19,4.19,0,0,0-2.18-.62c-1.15,0-1.78.66-1.78,1.46s.63,1.27,2,1.8c1.85.7,2.79,1.63,2.79,3.21,0,1.87-1.45,3.19-4,3.19a6.09,6.09,0,0,1-3-.72Z"/><path d="M215.54,23.43c0,1.1,0,2.07.09,2.9h-1.72l-.11-1.74h0a4,4,0,0,1-3.52,2c-1.67,0-3.68-.93-3.68-4.67V15.68h1.94v5.9c0,2,.62,3.39,2.38,3.39a2.8,2.8,0,0,0,2.55-1.76,2.86,2.86,0,0,0,.17-1V15.68h1.94Z"/><path d="M218.75,10.71h1.94v6.65h0A3.59,3.59,0,0,1,222.12,16a4,4,0,0,1,2-.55c1.43,0,3.72.88,3.72,4.56v6.33h-1.94V20.22c0-1.72-.64-3.17-2.46-3.17a2.78,2.78,0,0,0-2.6,1.93,2.38,2.38,0,0,0-.13.93v6.42h-1.94Z"/><path d="M232,21.36a3.41,3.41,0,0,0,3.65,3.7,7.14,7.14,0,0,0,2.95-.55l.33,1.38a8.59,8.59,0,0,1-3.54.66c-3.28,0-5.24-2.15-5.24-5.37s1.89-5.74,5-5.74c3.48,0,4.4,3.06,4.4,5a8.12,8.12,0,0,1-.06.9ZM237.71,20c0-1.23-.5-3.14-2.68-3.14-2,0-2.82,1.8-3,3.14Z"/><path d="M242,10.71h1.94V26.33H242Z"/><path d="M256.37,10.71V23.58c0,1,0,2,.09,2.75h-1.74l-.09-1.85h0a4,4,0,0,1-3.63,2.1c-2.58,0-4.56-2.18-4.56-5.42,0-3.54,2.18-5.72,4.78-5.72a3.55,3.55,0,0,1,3.21,1.63h0V10.71ZM254.43,20a3.86,3.86,0,0,0-.08-.82,2.86,2.86,0,0,0-2.8-2.24c-2,0-3.19,1.76-3.19,4.11,0,2.16,1.06,3.94,3.15,3.94a2.92,2.92,0,0,0,2.84-2.31,3.65,3.65,0,0,0,.08-.83Z"/><path d="M263.63,26.33V25.15l1.52-1.48c3.65-3.48,5.3-5.32,5.32-7.48a2.55,2.55,0,0,0-2.84-2.79,4.87,4.87,0,0,0-3,1.21L264,13.24a6.26,6.26,0,0,1,4-1.45A4,4,0,0,1,272.41,16c0,2.64-1.91,4.77-4.93,7.68l-1.14,1.05v.05h6.42v1.6Z"/><path d="M284.42,19c0,4.86-1.8,7.55-5,7.55-2.8,0-4.69-2.62-4.73-7.35s2.07-7.44,5-7.44S284.42,14.47,284.42,19Zm-7.77.22c0,3.72,1.15,5.83,2.91,5.83,2,0,2.92-2.31,2.92-6s-.9-5.83-2.9-5.83C277.89,13.29,276.65,15.35,276.65,19.25Z"/><path d="M290.4,13.84h0l-2.49,1.34-.37-1.48L290.62,12h1.65v14.3H290.4Z"/><path d="M297.31,22.7a4.1,4.1,0,0,1,2.84-3.83l0-.06a3.54,3.54,0,0,1-2.27-3.21c0-2.27,1.91-3.81,4.42-3.81,2.78,0,4.16,1.74,4.16,3.52a3.62,3.62,0,0,1-2.35,3.34v.07a4,4,0,0,1,2.88,3.7c0,2.48-2.14,4.16-4.86,4.16C299.11,26.58,297.31,24.79,297.31,22.7Zm7.7-.09c0-1.73-1.21-2.57-3.14-3.12a3.1,3.1,0,0,0-2.58,3,2.64,2.64,0,0,0,2.86,2.73A2.59,2.59,0,0,0,305,22.61Zm-5.32-7.15c0,1.43,1.07,2.2,2.73,2.64a2.8,2.8,0,0,0,2.17-2.59,2.22,2.22,0,0,0-2.42-2.33A2.27,2.27,0,0,0,299.69,15.46Z"/></svg>