<svg id="Layer_1" data-name="Layer 1" xmlns="http://www.w3.org/2000/svg" viewBox="0 0 526 370"><defs><style>.cls-1,.cls-2{fill:#009245;}.cls-1,.cls-3,.cls-5,.cls-7,.cls-9{stroke:#000;stroke-miterlimit:10;stroke-width:0.5px;}.cls-3,.cls-4{fill:#00a99d;}.cls-5,.cls-6{fill:#999;}.cls-7,.cls-8{fill:#8cc63f;}.cls-10,.cls-9{fill:#22b573;}</style></defs><title>Artboard 2</title><rect class="cls-1" x="359.88" y="58.78" width="41.19" height="30.21"/><path class="cls-2" d="M170.53,209.84,65,130.29c25.65-34,62.92-52.63,105.55-52.63Z"/><rect class="cls-3" x="359.88" y="104.1" width="41.19" height="30.21"/><path class="cls-4" d="M170.53,209.84,83.82,309.59A131.56,131.56,0,0,1,65,130.29Z"/><rect class="cls-5" x="359.88" y="149.41" width="41.19" height="30.21"/><path class="cls-6" d="M170.26,209.15l127.67,34.21a132.18,132.18,0,0,1-161.88,93.46,126.75,126.75,0,0,1-52.5-27.92Z"/><rect class="cls-7" x="359.88" y="194.73" width="41.19" height="30.21"/><path class="cls-8" d="M170.53,209.84,226.39,90.05c58.62,27.33,88.55,91.52,71.81,154Z"/><rect class="cls-9" x="359.88" y="240.05" width="41.19" height="30.21"/><path class="cls-10" d="M170.53,209.84V77.66c20.66,0,37.14,3.66,55.86,12.39Z"/><path d="M412.64,70.6a4.72,4.72,0,0,0-1,.06,4.09,4.09,0,0,0-3.49,3.57h.05a3.06,3.06,0,0,1,5.45,2.08,3.36,3.36,0,0,1-3.33,3.54c-2.15,0-3.56-1.67-3.56-4.28a6.27,6.27,0,0,1,1.7-4.52,5.53,5.53,0,0,1,3.21-1.49,6.75,6.75,0,0,1,1-.07Zm-.38,5.79a2,2,0,0,0-2.07-2.3,2.25,2.25,0,0,0-1.95,1.23,1.22,1.22,0,0,0-.15.61c0,1.65.79,2.87,2.21,2.87C411.47,78.8,412.26,77.83,412.26,76.39Z"/><path d="M420.83,70.78H417l-.39,2.58a5.53,5.53,0,0,1,.82-.06,4.23,4.23,0,0,1,2.16.54A2.86,2.86,0,0,1,421,76.42a3.49,3.49,0,0,1-3.74,3.43,4.92,4.92,0,0,1-2.5-.62l.34-1a4.62,4.62,0,0,0,2.15.55,2.22,2.22,0,0,0,2.38-2.18c0-1.29-.88-2.22-2.89-2.22a9.78,9.78,0,0,0-1.39.11l.65-4.82h4.8Z"/><path d="M430.61,79.68l-.11-.94h-.05a2.8,2.8,0,0,1-2.28,1.11,2.13,2.13,0,0,1-2.29-2.15c0-1.8,1.61-2.79,4.49-2.78v-.15a1.54,1.54,0,0,0-1.7-1.73,3.7,3.7,0,0,0-1.94.55l-.31-.89a4.66,4.66,0,0,1,2.46-.67c2.28,0,2.84,1.56,2.84,3.06v2.8a10.8,10.8,0,0,0,.12,1.79Zm-.2-3.82c-1.49,0-3.17.24-3.17,1.69a1.2,1.2,0,0,0,1.28,1.29,1.86,1.86,0,0,0,1.81-1.25,1.63,1.63,0,0,0,.08-.43ZM427.49,70a1.46,1.46,0,0,1,1.57-1.47A1.45,1.45,0,1,1,427.49,70Zm2.34,0a.8.8,0,0,0-.8-.85.79.79,0,0,0-.76.88.78.78,0,1,0,1.56,0Z"/><path d="M433.91,74.54c0-.88,0-1.64-.06-2.34H435l0,1.47h.06A2.24,2.24,0,0,1,437.22,72a1.46,1.46,0,0,1,.38,0v1.28a2.13,2.13,0,0,0-.46,0,1.89,1.89,0,0,0-1.82,1.74,3.91,3.91,0,0,0-.07.63v4h-1.34Z"/><path d="M449,75.88a3.65,3.65,0,0,1-3.72,4A3.55,3.55,0,0,1,441.7,76a3.65,3.65,0,0,1,3.7-4A3.54,3.54,0,0,1,449,75.88Zm-5.93.08c0,1.63.94,2.87,2.27,2.87s2.27-1.22,2.27-2.9c0-1.27-.63-2.88-2.24-2.88S443.07,74.54,443.07,76Z"/><path d="M457.16,72.2c0,.54-.07,1.15-.07,2.06V78.6c0,1.71-.34,2.76-1.06,3.41a4,4,0,0,1-2.72.9,4.89,4.89,0,0,1-2.49-.62l.34-1a4.24,4.24,0,0,0,2.2.59c1.39,0,2.41-.73,2.41-2.61V78.4h0a2.66,2.66,0,0,1-2.37,1.25c-1.86,0-3.18-1.58-3.18-3.65,0-2.53,1.65-4,3.36-4a2.47,2.47,0,0,1,2.33,1.3h0L456,72.2Zm-1.41,3a1.92,1.92,0,0,0-.08-.61,2,2,0,0,0-1.9-1.44c-1.29,0-2.22,1.1-2.22,2.83,0,1.46.74,2.68,2.21,2.68a2,2,0,0,0,1.88-1.39,2.25,2.25,0,0,0,.11-.72Z"/><path d="M469.08,68.71v9c0,.66,0,1.42.06,1.93h-1.22l-.06-1.3h0a2.78,2.78,0,0,1-2.55,1.47c-1.81,0-3.2-1.53-3.2-3.8,0-2.49,1.53-4,3.35-4a2.49,2.49,0,0,1,2.26,1.15h0V68.71Zm-1.36,6.54a2.17,2.17,0,0,0-.06-.57,2,2,0,0,0-2-1.58c-1.41,0-2.24,1.24-2.24,2.89s.74,2.76,2.21,2.76a2,2,0,0,0,2-1.62,2.23,2.23,0,0,0,.06-.59Z"/><path d="M472.09,76.19a2.39,2.39,0,0,0,2.57,2.59,5,5,0,0,0,2.07-.38l.23,1a6,6,0,0,1-2.49.46,3.47,3.47,0,0,1-3.67-3.77c0-2.25,1.32-4,3.5-4,2.44,0,3.09,2.15,3.09,3.53a4.31,4.31,0,0,1-.05.63Zm4-1A1.94,1.94,0,0,0,474.19,73a2.25,2.25,0,0,0-2.08,2.21Z"/><path d="M479.07,74.54c0-.88,0-1.64-.06-2.34h1.19l.05,1.47h.06A2.25,2.25,0,0,1,482.38,72a1.46,1.46,0,0,1,.38,0v1.28a2,2,0,0,0-.46,0,1.89,1.89,0,0,0-1.82,1.74,4,4,0,0,0-.06.63v4h-1.35Z"/><path d="M490.73,75.88a3.65,3.65,0,0,1-3.72,4A3.55,3.55,0,0,1,483.43,76a3.65,3.65,0,0,1,3.71-4A3.54,3.54,0,0,1,490.73,75.88ZM484.8,76c0,1.63.95,2.87,2.27,2.87s2.27-1.22,2.27-2.9c0-1.27-.63-2.88-2.24-2.88S484.8,74.54,484.8,76Z"/><path d="M492.87,72.2l1.46,4.2a20,20,0,0,1,.61,1.92h0c.17-.62.39-1.24.64-1.92l1.45-4.2h1.42l-2.94,7.48h-1.29l-2.84-7.48Z"/><path d="M500.37,76.19a2.39,2.39,0,0,0,2.57,2.59A5,5,0,0,0,505,78.4l.23,1a6,6,0,0,1-2.49.46,3.47,3.47,0,0,1-3.67-3.77c0-2.25,1.32-4,3.5-4,2.44,0,3.09,2.15,3.09,3.53a4.31,4.31,0,0,1-.05.63Zm4-1A1.94,1.94,0,0,0,502.47,73a2.25,2.25,0,0,0-2.08,2.21Z"/><path d="M507.35,74.54c0-.88,0-1.64-.06-2.34h1.19l0,1.47h.06A2.25,2.25,0,0,1,510.66,72a1.6,1.6,0,0,1,.39,0v1.28a2.17,2.17,0,0,0-.47,0,1.91,1.91,0,0,0-1.82,1.74,4,4,0,0,0-.06.63v4h-1.35Z"/><path d="M411.11,125v-2.74h-4.66v-.89l4.48-6.41h1.47v6.24h1.4v1.06h-1.4V125Zm0-3.8v-3.35c0-.53,0-1.06.05-1.58h-.05c-.31.59-.55,1-.83,1.48l-2.45,3.42v0Z"/><path d="M420.83,116.1H417l-.39,2.58a5.53,5.53,0,0,1,.82-.06,4.23,4.23,0,0,1,2.16.54,2.86,2.86,0,0,1,1.44,2.58,3.49,3.49,0,0,1-3.74,3.43,4.92,4.92,0,0,1-2.5-.62l.34-1a4.49,4.49,0,0,0,2.15.56,2.22,2.22,0,0,0,2.38-2.18c0-1.3-.88-2.22-2.89-2.22a9.78,9.78,0,0,0-1.39.11L416,115h4.8Z"/><path d="M426.34,120.32v1h-3.81v-1Z"/><path d="M433.23,115.92a4.72,4.72,0,0,0-1,.06,4.07,4.07,0,0,0-3.49,3.56h0a3.06,3.06,0,0,1,5.45,2.09,3.36,3.36,0,0,1-3.34,3.54c-2.14,0-3.55-1.67-3.55-4.28a6.32,6.32,0,0,1,1.7-4.53,5.52,5.52,0,0,1,3.21-1.48,6.81,6.81,0,0,1,1-.08Zm-.38,5.79a2,2,0,0,0-2.07-2.3,2.23,2.23,0,0,0-1.95,1.23,1.18,1.18,0,0,0-.15.6c0,1.65.78,2.87,2.2,2.87C432.06,124.11,432.85,123.14,432.85,121.71Z"/><path d="M439.63,125v-2.74H435v-.89l4.48-6.41h1.47v6.24h1.4v1.06h-1.4V125Zm0-3.8v-3.35c0-.53,0-1.06,0-1.58h0c-.31.59-.56,1-.84,1.48l-2.45,3.42v0Z"/><path d="M451.19,125l-.1-1h0a2.79,2.79,0,0,1-2.29,1.12,2.13,2.13,0,0,1-2.28-2.15c0-1.81,1.61-2.8,4.49-2.78v-.16a1.54,1.54,0,0,0-1.7-1.73,3.7,3.7,0,0,0-1.94.56L447,118a4.56,4.56,0,0,1,2.45-.67c2.29,0,2.85,1.56,2.85,3.06v2.79a10.93,10.93,0,0,0,.12,1.8Zm-.2-3.82c-1.48,0-3.16.23-3.16,1.68a1.21,1.21,0,0,0,1.28,1.3,1.87,1.87,0,0,0,1.81-1.25,1.61,1.61,0,0,0,.07-.43Zm-2.91-5.88a1.46,1.46,0,0,1,1.57-1.47,1.43,1.43,0,0,1,1.53,1.45,1.45,1.45,0,0,1-1.55,1.42A1.44,1.44,0,0,1,448.08,115.3Zm2.34,0a.78.78,0,1,0-1.56,0,.78.78,0,1,0,1.56,0Z"/><path d="M454.5,119.85c0-.88,0-1.63-.06-2.33h1.19l0,1.47h.07a2.23,2.23,0,0,1,2.06-1.64,1.48,1.48,0,0,1,.39.05v1.28a2.09,2.09,0,0,0-.46-.05,1.9,1.9,0,0,0-1.82,1.75,3.79,3.79,0,0,0-.07.63v4H454.5Z"/><path d="M406.91,170.31v-.83l1.07-1c2.56-2.44,3.72-3.73,3.74-5.25a1.79,1.79,0,0,0-2-2,3.47,3.47,0,0,0-2.13.85l-.43-1a4.45,4.45,0,0,1,2.84-1,2.84,2.84,0,0,1,3.08,2.92c0,1.86-1.35,3.35-3.46,5.39l-.81.74v0h4.51v1.13Z"/><path d="M420.83,161.42H417l-.39,2.58a4.3,4.3,0,0,1,.82-.07,4.23,4.23,0,0,1,2.16.54,2.87,2.87,0,0,1,1.44,2.58,3.49,3.49,0,0,1-3.74,3.43,4.92,4.92,0,0,1-2.5-.62l.34-1a4.5,4.5,0,0,0,2.15.55,2.21,2.21,0,0,0,2.38-2.17c0-1.3-.88-2.23-2.89-2.23a11.53,11.53,0,0,0-1.39.11l.65-4.82h4.8Z"/><path d="M426.34,165.63v1h-3.81v-1Z"/><path d="M431.7,170.31v-2.73H427v-.9l4.48-6.41H433v6.24h1.41v1.07H433v2.73Zm0-3.8v-3.35c0-.52,0-1,.05-1.57h-.05c-.31.58-.55,1-.83,1.48l-2.46,3.41v0Z"/><path d="M439.63,170.31v-2.73H435v-.9l4.48-6.41h1.47v6.24h1.4v1.07h-1.4v2.73Zm0-3.8v-3.35c0-.52,0-1,0-1.57h0c-.31.58-.56,1-.84,1.48l-2.45,3.41v0Z"/><path d="M451.19,170.31l-.1-.94h0a2.78,2.78,0,0,1-2.29,1.11,2.12,2.12,0,0,1-2.28-2.15c0-1.8,1.61-2.79,4.49-2.77v-.16a1.54,1.54,0,0,0-1.7-1.73,3.7,3.7,0,0,0-1.94.56l-.31-.9a4.64,4.64,0,0,1,2.45-.66c2.29,0,2.85,1.56,2.85,3.06v2.79a10.8,10.8,0,0,0,.12,1.79Zm-.2-3.81c-1.48,0-3.16.23-3.16,1.68a1.21,1.21,0,0,0,1.28,1.3,1.87,1.87,0,0,0,1.81-1.25,1.68,1.68,0,0,0,.07-.44Zm-2.91-5.89a1.45,1.45,0,0,1,1.57-1.46,1.43,1.43,0,0,1,1.53,1.45,1.56,1.56,0,0,1-3.1,0Zm2.34,0a.78.78,0,1,0-1.56,0,.78.78,0,1,0,1.56,0Z"/><path d="M454.5,165.17c0-.88,0-1.64-.06-2.33h1.19l0,1.46h.07a2.23,2.23,0,0,1,2.06-1.63,1.51,1.51,0,0,1,.39,0V164a1.62,1.62,0,0,0-.46-.05,1.89,1.89,0,0,0-1.82,1.74,4,4,0,0,0-.07.64v4H454.5Z"/><path d="M409.86,206.86h0l-1.74.94-.26-1,2.19-1.17h1.16v10h-1.32Z"/><path d="M414.71,213.08a2.87,2.87,0,0,1,2-2.69l0,0a2.5,2.5,0,0,1-1.59-2.26,2.81,2.81,0,0,1,3.1-2.67c1.95,0,2.92,1.22,2.92,2.47a2.55,2.55,0,0,1-1.65,2.35v0a2.77,2.77,0,0,1,2,2.59c0,1.74-1.49,2.92-3.41,2.92C416,215.8,414.71,214.55,414.71,213.08Zm5.41-.06c0-1.22-.85-1.81-2.21-2.19a2.18,2.18,0,0,0-1.81,2.06,1.87,1.87,0,0,0,2,1.92A1.82,1.82,0,0,0,420.12,213Zm-3.74-5c0,1,.76,1.54,1.92,1.85a2,2,0,0,0,1.53-1.82,1.56,1.56,0,0,0-1.7-1.64A1.6,1.6,0,0,0,416.38,208Z"/><path d="M426.34,211v1h-3.81v-1Z"/><path d="M427.5,215.63v-.84l1.07-1c2.56-2.44,3.72-3.74,3.73-5.25a1.79,1.79,0,0,0-2-2,3.41,3.41,0,0,0-2.13.85l-.43-1a4.37,4.37,0,0,1,2.84-1,2.82,2.82,0,0,1,3.07,2.92c0,1.85-1.34,3.35-3.45,5.39l-.81.74v0h4.51v1.13Z"/><path d="M439.63,215.63v-2.74H435V212l4.48-6.41h1.47v6.24h1.4v1.06h-1.4v2.74Zm0-3.8v-3.35c0-.53,0-1,0-1.58h0c-.31.59-.56,1-.84,1.49l-2.45,3.41v0Z"/><path d="M451.19,215.63l-.1-.94h0a2.81,2.81,0,0,1-2.29,1.11,2.13,2.13,0,0,1-2.28-2.15c0-1.81,1.61-2.79,4.49-2.78v-.15a1.54,1.54,0,0,0-1.7-1.73,3.7,3.7,0,0,0-1.94.55l-.31-.89a4.65,4.65,0,0,1,2.45-.67c2.29,0,2.85,1.56,2.85,3.06v2.8a10.8,10.8,0,0,0,.12,1.79Zm-.2-3.82c-1.48,0-3.16.24-3.16,1.69a1.2,1.2,0,0,0,1.28,1.29,1.86,1.86,0,0,0,1.81-1.25,1.61,1.61,0,0,0,.07-.43Zm-2.91-5.88a1.46,1.46,0,0,1,1.57-1.47,1.44,1.44,0,0,1,1.53,1.46,1.46,1.46,0,0,1-1.55,1.42A1.44,1.44,0,0,1,448.08,205.93Zm2.34,0a.8.8,0,0,0-.8-.85.79.79,0,0,0-.76.88.78.78,0,1,0,1.56,0Z"/><path d="M454.5,210.49c0-.88,0-1.64-.06-2.34h1.19l0,1.47h.07A2.24,2.24,0,0,1,457.8,208a1.48,1.48,0,0,1,.39.05v1.28a2.13,2.13,0,0,0-.46,0,1.89,1.89,0,0,0-1.82,1.74,3.91,3.91,0,0,0-.07.63v4H454.5Z"/><path d="M413.59,255.82c0,3.41-1.27,5.29-3.5,5.29-2,0-3.28-1.83-3.32-5.15s1.46-5.22,3.49-5.22S413.59,252.62,413.59,255.82Zm-5.46.15c0,2.61.81,4.09,2,4.09,1.39,0,2.06-1.62,2.06-4.18s-.64-4.09-2-4.09C409,251.79,408.13,253.24,408.13,256Z"/><path d="M418.42,256.27v1h-3.81v-1Z"/><path d="M422.53,252.17h0l-1.75,1-.26-1,2.19-1.17h1.16v10h-1.31Z"/><path d="M434,250.91v.89l-4.37,9.14h-1.41l4.36-8.87v0h-4.91v-1.12Z"/><path d="M443.27,260.94l-.11-.94h0a2.78,2.78,0,0,1-2.29,1.11,2.13,2.13,0,0,1-2.29-2.14c0-1.81,1.61-2.8,4.5-2.78V256a1.54,1.54,0,0,0-1.7-1.73,3.77,3.77,0,0,0-1.95.56l-.3-.9a4.62,4.62,0,0,1,2.45-.66c2.29,0,2.84,1.56,2.84,3.06v2.79a9.76,9.76,0,0,0,.13,1.79Zm-.2-3.81c-1.48,0-3.17.23-3.17,1.68a1.21,1.21,0,0,0,1.29,1.3,1.85,1.85,0,0,0,1.8-1.25,1.31,1.31,0,0,0,.08-.43Zm-2.92-5.88a1.46,1.46,0,0,1,1.58-1.47,1.43,1.43,0,0,1,1.52,1.45,1.56,1.56,0,0,1-3.1,0Zm2.35,0a.78.78,0,1,0-1.56,0,.78.78,0,1,0,1.56,0Z"/><path d="M446.58,255.8c0-.88,0-1.63-.07-2.33h1.19l.05,1.47h.06a2.24,2.24,0,0,1,2.07-1.64,1.54,1.54,0,0,1,.39,0v1.28a2.12,2.12,0,0,0-.47,0,1.92,1.92,0,0,0-1.82,1.75,3.85,3.85,0,0,0-.06.63v4h-1.34Z"/><path d="M40.59,46.8h-3V45.17h7.18V46.8h-3V60H40.59Z"/><path d="M45.2,52.67c0-1.25,0-2.33-.05-3.32h1.1l0,2.09h.05c.32-1.43,1.08-2.33,1.93-2.33a1,1,0,0,1,.36.06V51a1.38,1.38,0,0,0-.43-.07c-.89,0-1.53,1-1.7,2.49a8,8,0,0,0-.06.9V60H45.2Z"/><path d="M53.68,60l-.1-1.34h0a2.47,2.47,0,0,1-2.13,1.58c-1.41,0-2.12-1.52-2.12-3.06,0-2.57,1.49-4,4.18-4V53c0-.88-.16-2.46-1.58-2.46a2.67,2.67,0,0,0-1.81.79l-.29-1.28a3.28,3.28,0,0,1,2.28-.94c2.13,0,2.65,2.22,2.65,4.35v4A24.59,24.59,0,0,0,54.83,60Zm-.18-5.43c-1.38,0-3,.33-3,2.39,0,1.26.55,1.85,1.19,1.85.91,0,1.48-.88,1.69-1.78a3.27,3.27,0,0,0,.07-.62Z"/><path d="M56.89,60V50.82h-1V49.35h1v-.57c0-2.82,1.08-4.64,3-4.64a2.61,2.61,0,0,1,1.77.7l-.36,1.47a2,2,0,0,0-1.46-.61c-1.34,0-1.73,1.43-1.73,3.12v.53h4V60H60.93V50.82H58.14V60Z"/><path d="M65.53,54.24h0c.17-.38.42-.84.62-1.22l2-3.67h1.52l-2.69,4.38L70.12,60H68.58l-2.4-5.1L65.53,56v4H64.28V44.38h1.25Z"/><path d="M79.89,57.1c0,1.1,0,2.06.06,2.9H78.83l-.08-1.74h0a2.71,2.71,0,0,1-2.3,2c-1.1,0-2.4-.92-2.4-4.66V49.35h1.26v5.9c0,2,.4,3.39,1.55,3.39.85,0,1.44-.91,1.67-1.76a4.33,4.33,0,0,0,.12-1V49.35h1.26Z"/><path d="M82,44.38h1.26V51h0a3.23,3.23,0,0,1,.91-1.36,2,2,0,0,1,1.29-.55c.94,0,2.43.88,2.43,4.55V60H86.65V53.88c0-1.71-.42-3.17-1.61-3.17-.82,0-1.47.88-1.7,1.94a3.62,3.62,0,0,0-.09.93V60H82Z"/><path d="M90.67,55c0,2.62,1.12,3.69,2.39,3.69A3.22,3.22,0,0,0,95,58.17l.22,1.39a4,4,0,0,1-2.32.66c-2.14,0-3.42-2.16-3.42-5.37s1.24-5.74,3.27-5.74c2.27,0,2.87,3.06,2.87,5,0,.39,0,.7,0,.9Zm3.71-1.39c0-1.23-.33-3.15-1.75-3.15s-1.84,1.81-1.94,3.15Z"/><path d="M97.17,44.38h1.26V60H97.17Z"/><path d="M106.57,44.38V57.25c0,1,0,2,.06,2.75h-1.14l-.06-1.85h0A2.64,2.64,0,0,1,103,60.24c-1.68,0-3-2.18-3-5.41,0-3.54,1.42-5.72,3.12-5.72a2.27,2.27,0,0,1,2.09,1.63h0V44.38Zm-1.27,9.31a5.56,5.56,0,0,0,0-.82c-.19-1.23-.88-2.24-1.83-2.24-1.31,0-2.08,1.76-2.08,4.11,0,2.16.69,3.94,2,3.94.85,0,1.63-.86,1.86-2.31a5.5,5.5,0,0,0,0-.84Z"/><path d="M111.71,52.23c0-1.1,0-2,0-2.88h1.1l.06,1.72h0c.39-1,1-2,2.19-2,1,0,1.67.88,2,2.13h0a4.43,4.43,0,0,1,.77-1.38,1.89,1.89,0,0,1,1.54-.75c.92,0,2.29.92,2.29,4.62V60h-1.24V54c0-2-.49-3.28-1.51-3.28-.72,0-1.28.82-1.49,1.76a4.67,4.67,0,0,0-.1,1V60h-1.24V53.62c0-1.7-.49-2.93-1.45-2.93-.79,0-1.37,1-1.57,1.94a4.13,4.13,0,0,0-.1.95V60h-1.24Z"/><path d="M124.41,55c0,2.62,1.12,3.69,2.38,3.69a3.24,3.24,0,0,0,1.93-.55l.22,1.39a4,4,0,0,1-2.32.66c-2.14,0-3.42-2.16-3.42-5.37s1.24-5.74,3.26-5.74c2.27,0,2.88,3.06,2.88,5a8.66,8.66,0,0,1-.05.9Zm3.71-1.39c0-1.23-.33-3.15-1.76-3.15-1.28,0-1.84,1.81-1.94,3.15Z"/><path d="M136.91,44.38V57.25c0,1,0,2,.06,2.75h-1.13l-.06-1.85h0a2.66,2.66,0,0,1-2.37,2.09c-1.68,0-3-2.18-3-5.41,0-3.54,1.43-5.72,3.12-5.72a2.28,2.28,0,0,1,2.1,1.63h0V44.38Zm-1.26,9.31a5.55,5.55,0,0,0-.06-.82c-.19-1.23-.88-2.24-1.82-2.24-1.31,0-2.09,1.76-2.09,4.11,0,2.16.69,3.94,2.06,3.94.85,0,1.62-.86,1.85-2.31a5.44,5.44,0,0,0,.06-.84Z"/><path d="M142.06,52.83c0-1.37,0-2.47-.06-3.48h1.14l.06,1.83h0c.52-1.3,1.34-2.07,2.48-2.07,1.68,0,2.94,2.18,2.94,5.41,0,3.83-1.52,5.72-3.16,5.72a2.35,2.35,0,0,1-2.14-1.67h0v5.79h-1.25Zm1.25,2.84a6.35,6.35,0,0,0,.06.79c.23,1.34,1,2.26,1.9,2.26,1.33,0,2.11-1.67,2.11-4.11,0-2.13-.73-4-2.07-4-.86,0-1.67.94-1.91,2.4a4.07,4.07,0,0,0-.09.79Z"/><path d="M150.94,55c0,2.62,1.13,3.69,2.39,3.69a3.26,3.26,0,0,0,1.93-.55l.21,1.39a4,4,0,0,1-2.31.66c-2.14,0-3.42-2.16-3.42-5.37S151,49.11,153,49.11c2.27,0,2.87,3.06,2.87,5,0,.39,0,.7,0,.9Zm3.71-1.39c0-1.23-.33-3.15-1.75-3.15s-1.84,1.81-1.94,3.15Z"/><path d="M157.44,52.67c0-1.25,0-2.33-.06-3.32h1.11l0,2.09h.06c.32-1.43,1.08-2.33,1.93-2.33a1,1,0,0,1,.36.06V51a1.38,1.38,0,0,0-.43-.07c-.9,0-1.53,1-1.7,2.49a8,8,0,0,0-.06.9V60h-1.25Z"/><path d="M162,58a2.59,2.59,0,0,0,1.67.77c.92,0,1.35-.7,1.35-1.58a2,2,0,0,0-1.3-2,3.28,3.28,0,0,1-1.84-3c0-1.71.91-3.12,2.4-3.12a2.59,2.59,0,0,1,1.71.66l-.31,1.41a2.07,2.07,0,0,0-1.42-.62c-.75,0-1.17.66-1.17,1.45s.42,1.28,1.32,1.81A3.34,3.34,0,0,1,166.21,57c0,1.87-1,3.19-2.6,3.19a3,3,0,0,1-2-.73Z"/><path d="M174.13,54.59c0,3.94-1.78,5.65-3.46,5.65-1.89,0-3.34-2.11-3.34-5.48,0-3.56,1.52-5.65,3.45-5.65S174.13,51.33,174.13,54.59Zm-5.52.11c0,2.33.88,4.09,2.11,4.09s2.12-1.74,2.12-4.14c0-1.8-.59-4.09-2.09-4.09S168.61,52.67,168.61,54.7Z"/><path d="M175.72,52.23c0-1.1,0-2-.05-2.88h1.12l.07,1.76h0a2.64,2.64,0,0,1,2.3-2c1,0,2.46.88,2.46,4.53V60h-1.27V53.86c0-1.71-.41-3.15-1.61-3.15-.83,0-1.48.91-1.69,2a4.12,4.12,0,0,0-.09.91V60h-1.27Z"/><path d="M183.53,58a2.64,2.64,0,0,0,1.67.77c.92,0,1.35-.7,1.35-1.58a2,2,0,0,0-1.29-2,3.28,3.28,0,0,1-1.84-3c0-1.71.9-3.12,2.4-3.12a2.63,2.63,0,0,1,1.71.66l-.32,1.41a2.07,2.07,0,0,0-1.42-.62c-.75,0-1.17.66-1.17,1.45s.42,1.28,1.33,1.81A3.35,3.35,0,0,1,187.77,57c0,1.87-1,3.19-2.6,3.19a3,3,0,0,1-2-.73Z"/><path d="M190.65,54.24h0c.18-.38.42-.84.62-1.22l2-3.67h1.53l-2.69,4.38L195.23,60h-1.54l-2.4-5.1-.64,1.1v4H189.4V44.38h1.25Z"/><path d="M200.25,60l-.1-1.34h-.05A2.46,2.46,0,0,1,198,60.24c-1.41,0-2.13-1.52-2.13-3.06,0-2.57,1.49-4,4.18-4V53c0-.88-.16-2.46-1.58-2.46a2.67,2.67,0,0,0-1.81.79l-.29-1.28a3.3,3.3,0,0,1,2.29-.94c2.13,0,2.64,2.22,2.64,4.35v4A21.93,21.93,0,0,0,201.4,60Zm-.19-5.43c-1.38,0-2.95.33-2.95,2.39,0,1.26.55,1.85,1.2,1.85.9,0,1.48-.88,1.68-1.78a3.27,3.27,0,0,0,.07-.62Z"/><path d="M209.33,44.38V57.25c0,1,0,2,.06,2.75h-1.14l-.05-1.85h0a2.66,2.66,0,0,1-2.37,2.09c-1.68,0-3-2.18-3-5.41,0-3.54,1.42-5.72,3.12-5.72a2.29,2.29,0,0,1,2.1,1.63h0V44.38Zm-1.26,9.31a5.55,5.55,0,0,0-.06-.82c-.19-1.23-.88-2.24-1.83-2.24-1.3,0-2.08,1.76-2.08,4.11,0,2.16.69,3.94,2.06,3.94.84,0,1.62-.86,1.85-2.31a5.44,5.44,0,0,0,.06-.84Z"/><path d="M212.14,55c0,2.62,1.12,3.69,2.38,3.69a3.26,3.26,0,0,0,1.93-.55l.21,1.39a4,4,0,0,1-2.31.66c-2.14,0-3.42-2.16-3.42-5.37s1.24-5.74,3.26-5.74c2.27,0,2.88,3.06,2.88,5a8.66,8.66,0,0,1,0,.9Zm3.7-1.39c0-1.23-.33-3.15-1.75-3.15s-1.84,1.81-1.94,3.15Z"/><path d="M223.09,46.36c0,.66-.3,1.19-.8,1.19s-.77-.53-.77-1.19.33-1.21.79-1.21S223.09,45.68,223.09,46.36ZM221.68,60V49.35H223V60Z"/><path d="M227.69,60V58.81l1-1.47c2.39-3.48,3.46-5.33,3.48-7.48,0-1.46-.46-2.8-1.86-2.8a2.75,2.75,0,0,0-2,1.21l-.4-1.36a3.4,3.4,0,0,1,2.64-1.45c2,0,2.86,2.11,2.86,4.15,0,2.64-1.25,4.78-3.22,7.68l-.74,1.06v0h4.19V60Z"/><path d="M241.27,52.69c0,4.87-1.18,7.55-3.25,7.55-1.82,0-3.06-2.62-3.09-7.35s1.35-7.43,3.25-7.43S241.27,48.14,241.27,52.69Zm-5.07.23c0,3.71.75,5.83,1.9,5.83s1.91-2.31,1.91-6-.59-5.83-1.9-5.83C237,47,236.2,49,236.2,52.92Z"/><path d="M245.18,47.5h0l-1.62,1.34-.24-1.47,2-1.67h1.07V60h-1.22Z"/><path d="M249.7,56.37a4.3,4.3,0,0,1,1.85-3.83v-.06a3.87,3.87,0,0,1-1.48-3.22c0-2.26,1.25-3.8,2.89-3.8,1.81,0,2.71,1.73,2.71,3.52a4,4,0,0,1-1.54,3.34v.07A4.06,4.06,0,0,1,256,56.08c0,2.49-1.4,4.16-3.18,4.16C250.88,60.24,249.7,58.46,249.7,56.37Zm5-.09a2.1,2.1,0,1,0-3.74-.17c0,1.45.68,2.72,1.87,2.72S254.73,57.76,254.73,56.28Zm-3.48-7.15A2.6,2.6,0,0,0,253,51.77a2.77,2.77,0,0,0,1.42-2.6c0-1.14-.44-2.33-1.58-2.33S251.25,47.9,251.25,49.13Z"/></svg>