<svg id="Layer_1" data-name="Layer 1" xmlns="http://www.w3.org/2000/svg" viewBox="0 0 564.38 352.74"><defs><style>.cls-1{fill:#c56223;}.cls-1,.cls-2,.cls-3,.cls-4,.cls-5{stroke:#000;stroke-miterlimit:10;stroke-width:0.5px;}.cls-2{fill:#d02f28;}.cls-3{fill:#e0746f;}.cls-4{fill:#c9a600;}</style></defs><title>Artboard 2</title><path d="M22.33,27.51H19.16V25.76h7.7v1.75H23.68V41.68H22.33Z"/><path d="M27.28,33.82c0-1.35,0-2.51-.06-3.57H28.4l.05,2.24h.06C28.85,31,29.67,30,30.58,30a1,1,0,0,1,.39.07v2A1.33,1.33,0,0,0,30.5,32c-.95,0-1.63,1.11-1.82,2.67a9,9,0,0,0-.06,1v6.09H27.28Z"/><path d="M36.38,41.68l-.11-1.44h0a2.65,2.65,0,0,1-2.29,1.7c-1.51,0-2.28-1.63-2.28-3.28,0-2.76,1.6-4.28,4.49-4.25v-.24c0-.94-.17-2.64-1.7-2.64a2.85,2.85,0,0,0-1.94.85L32.2,31a3.51,3.51,0,0,1,2.45-1c2.29,0,2.84,2.39,2.84,4.68v4.27a22.78,22.78,0,0,0,.13,2.74Zm-.2-5.83C34.7,35.8,33,36.2,33,38.42c0,1.35.58,2,1.28,2,1,0,1.59-.95,1.8-1.92a3,3,0,0,0,.08-.66Z"/><path d="M39.82,41.68V31.83h-1V30.25h1v-.61c0-3,1.16-5,3.26-5a2.78,2.78,0,0,1,1.89.76L44.59,27A2.22,2.22,0,0,0,43,26.33c-1.44,0-1.86,1.53-1.86,3.35v.57H45.5V41.68H44.16V31.83h-3v9.85Z"/><path d="M49.09,35.49h0c.18-.4.44-.89.66-1.3L52,30.25h1.63L50.73,35,54,41.68H52.37L49.79,36.2l-.7,1.18v4.3H47.75V24.91h1.34Z"/><path d="M64.51,38.56c0,1.19,0,2.22.06,3.12h-1.2l-.08-1.86h0a2.9,2.9,0,0,1-2.47,2.12c-1.17,0-2.58-1-2.58-5V30.25h1.36v6.33c0,2.17.43,3.64,1.67,3.64.91,0,1.54-1,1.79-1.89a5,5,0,0,0,.12-1.06v-7h1.36Z"/><path d="M66.76,24.91h1.36v7.14h0a3.45,3.45,0,0,1,1-1.47A2.15,2.15,0,0,1,70.51,30c1,0,2.61.94,2.61,4.89v6.8H71.76V35.12c0-1.85-.45-3.41-1.73-3.41-.88,0-1.57.95-1.82,2.08a3.67,3.67,0,0,0-.09,1v6.9H66.76Z"/><path d="M76.08,36.34c0,2.81,1.2,4,2.56,4a3.52,3.52,0,0,0,2.07-.59l.23,1.49a4.34,4.34,0,0,1-2.49.71c-2.29,0-3.67-2.32-3.67-5.77S76.11,30,78.28,30c2.44,0,3.09,3.28,3.09,5.39,0,.42,0,.75-.05,1Zm4-1.48c0-1.33-.36-3.38-1.88-3.38s-2,1.94-2.09,3.38Z"/><path d="M83.05,24.91h1.36V41.68H83.05Z"/><path d="M93.14,24.91V38.73c0,1,0,2.17.06,3H92l-.07-2h0a2.84,2.84,0,0,1-2.54,2.24c-1.81,0-3.2-2.34-3.2-5.81,0-3.8,1.53-6.14,3.35-6.14a2.45,2.45,0,0,1,2.25,1.75h0V24.91Zm-1.36,10a5.09,5.09,0,0,0-.06-.87c-.2-1.32-.94-2.41-2-2.41-1.4,0-2.23,1.89-2.23,4.42,0,2.31.74,4.23,2.2,4.23.91,0,1.75-.93,2-2.49a5,5,0,0,0,.06-.89Z"/><path d="M98.67,33.34c0-1.18,0-2.14-.06-3.09h1.18l.06,1.84h.05C100.32,31,101,30,102.25,30c1,0,1.79.94,2.11,2.29h0a4.7,4.7,0,0,1,.83-1.49,2,2,0,0,1,1.65-.8c1,0,2.46,1,2.46,5v6.73H108V35.21c0-2.2-.52-3.52-1.62-3.52-.77,0-1.37.87-1.6,1.89a4.55,4.55,0,0,0-.11,1v7.06h-1.33V34.83c0-1.82-.52-3.14-1.56-3.14-.85,0-1.46,1-1.68,2.08a4.12,4.12,0,0,0-.11,1v6.9H98.67Z"/><path d="M112.29,36.34c0,2.81,1.2,4,2.56,4a3.52,3.52,0,0,0,2.07-.59l.23,1.49a4.33,4.33,0,0,1-2.48.71c-2.3,0-3.68-2.32-3.68-5.77S112.32,30,114.5,30c2.43,0,3.08,3.28,3.08,5.39,0,.42,0,.75,0,1Zm4-1.48c0-1.33-.35-3.38-1.88-3.38-1.37,0-2,1.94-2.08,3.38Z"/><path d="M125.71,24.91V38.73c0,1,0,2.17.06,3h-1.21l-.07-2h0a2.84,2.84,0,0,1-2.54,2.24c-1.81,0-3.2-2.34-3.2-5.81,0-3.8,1.53-6.14,3.35-6.14a2.45,2.45,0,0,1,2.25,1.75h0V24.91Zm-1.36,10a5.09,5.09,0,0,0-.06-.87c-.2-1.32-.94-2.41-2-2.41-1.4,0-2.23,1.89-2.23,4.42,0,2.31.74,4.23,2.2,4.23.91,0,1.75-.93,2-2.49a5,5,0,0,0,.06-.89Z"/><path d="M131.24,34c0-1.46,0-2.64-.07-3.73h1.22l.06,2h0c.55-1.39,1.43-2.22,2.65-2.22,1.8,0,3.16,2.34,3.16,5.81,0,4.11-1.63,6.14-3.39,6.14a2.53,2.53,0,0,1-2.3-1.79h0v6.21h-1.34ZM132.58,37a7.23,7.23,0,0,0,.06.85c.25,1.44,1.06,2.43,2,2.43,1.43,0,2.26-1.79,2.26-4.41,0-2.3-.78-4.26-2.22-4.26-.92,0-1.79,1-2.05,2.58a4.61,4.61,0,0,0-.09.85Z"/><path d="M140.77,36.34c0,2.81,1.2,4,2.56,4a3.52,3.52,0,0,0,2.07-.59l.23,1.49a4.33,4.33,0,0,1-2.48.71c-2.3,0-3.67-2.32-3.67-5.77S140.8,30,143,30c2.43,0,3.08,3.28,3.08,5.39,0,.42,0,.75,0,1Zm4-1.48c0-1.33-.35-3.38-1.88-3.38-1.37,0-2,1.94-2.08,3.38Z"/><path d="M147.74,33.82c0-1.35,0-2.51-.06-3.57h1.19l0,2.24H149c.34-1.53,1.16-2.5,2.07-2.5a.92.92,0,0,1,.38.07v2A1.31,1.31,0,0,0,151,32c-1,0-1.64,1.11-1.82,2.67a9,9,0,0,0-.06,1v6.09h-1.35Z"/><path d="M152.61,39.56a2.78,2.78,0,0,0,1.78.82c1,0,1.45-.75,1.45-1.7a2.17,2.17,0,0,0-1.38-2.1,3.51,3.51,0,0,1-2-3.24c0-1.84,1-3.35,2.58-3.35a2.77,2.77,0,0,1,1.83.71l-.34,1.51a2.25,2.25,0,0,0-1.52-.66c-.81,0-1.25.71-1.25,1.56s.44,1.37,1.42,1.94a3.58,3.58,0,0,1,2,3.44c0,2-1,3.43-2.8,3.43a3.16,3.16,0,0,1-2.09-.78Z"/><path d="M165.66,35.87c0,4.23-1.92,6.07-3.72,6.07-2,0-3.58-2.27-3.58-5.88,0-3.83,1.64-6.07,3.7-6.07S165.66,32.38,165.66,35.87Zm-5.93.12c0,2.5.94,4.39,2.27,4.39s2.27-1.86,2.27-4.44c0-1.93-.63-4.39-2.24-4.39S159.73,33.82,159.73,36Z"/><path d="M167.37,33.34c0-1.18,0-2.14-.06-3.09h1.2l.08,1.89h0A2.83,2.83,0,0,1,171.09,30c1,0,2.64.94,2.64,4.87v6.82h-1.36V35.09c0-1.84-.45-3.38-1.73-3.38-.89,0-1.59,1-1.82,2.13a4.57,4.57,0,0,0-.09,1v6.87h-1.36Z"/><path d="M175.75,39.56a2.78,2.78,0,0,0,1.79.82c1,0,1.45-.75,1.45-1.7a2.18,2.18,0,0,0-1.39-2.1,3.53,3.53,0,0,1-2-3.24c0-1.84,1-3.35,2.58-3.35a2.8,2.8,0,0,1,1.84.71l-.34,1.51a2.28,2.28,0,0,0-1.53-.66c-.8,0-1.25.71-1.25,1.56s.45,1.37,1.42,1.94a3.56,3.56,0,0,1,2,3.44c0,2-1,3.43-2.79,3.43a3.17,3.17,0,0,1-2.1-.78Z"/><path d="M183.38,35.49h0c.18-.4.44-.89.66-1.3l2.19-3.94h1.64L185,35l3.29,6.73h-1.65l-2.58-5.48-.7,1.18v4.3H182V24.91h1.34Z"/><path d="M193.69,41.68l-.11-1.44h0a2.65,2.65,0,0,1-2.29,1.7c-1.51,0-2.28-1.63-2.28-3.28,0-2.76,1.6-4.28,4.49-4.25v-.24c0-.94-.17-2.64-1.7-2.64a2.85,2.85,0,0,0-1.94.85L189.51,31A3.51,3.51,0,0,1,192,30c2.29,0,2.84,2.39,2.84,4.68v4.27a25.24,25.24,0,0,0,.12,2.74Zm-.2-5.83c-1.48-.05-3.16.35-3.16,2.57,0,1.35.58,2,1.28,2,1,0,1.59-.95,1.8-1.92a3,3,0,0,0,.08-.66Z"/><path d="M203.44,24.91V38.73c0,1,0,2.17.06,3h-1.22l-.06-2h0a2.84,2.84,0,0,1-2.54,2.24c-1.81,0-3.2-2.34-3.2-5.81,0-3.8,1.53-6.14,3.35-6.14a2.45,2.45,0,0,1,2.25,1.75h0V24.91Zm-1.36,10A5.09,5.09,0,0,0,202,34c-.2-1.32-.94-2.41-2-2.41-1.4,0-2.23,1.89-2.23,4.42,0,2.31.74,4.23,2.2,4.23.91,0,1.75-.93,2-2.49a5,5,0,0,0,.06-.89Z"/><path d="M206.45,36.34c0,2.81,1.2,4,2.56,4a3.52,3.52,0,0,0,2.07-.59l.23,1.49a4.33,4.33,0,0,1-2.48.71c-2.3,0-3.67-2.32-3.67-5.77s1.32-6.16,3.5-6.16c2.43,0,3.08,3.28,3.08,5.39,0,.42,0,.75,0,1Zm4-1.48c0-1.33-.35-3.38-1.88-3.38-1.37,0-2,1.94-2.08,3.38Z"/><path d="M218.21,27c0,.71-.33,1.27-.87,1.27s-.81-.56-.81-1.27.35-1.3.84-1.3S218.21,26.31,218.21,27ZM216.7,41.68V30.25h1.35V41.68Z"/><path d="M223.15,41.68V40.41l1.06-1.59c2.56-3.73,3.72-5.71,3.73-8,0-1.56-.49-3-2-3a3,3,0,0,0-2.13,1.3l-.43-1.46a3.65,3.65,0,0,1,2.84-1.56c2.16,0,3.07,2.27,3.07,4.46,0,2.84-1.34,5.13-3.46,8.25l-.8,1.13V40h4.51v1.72Z"/><path d="M237.72,33.84c0,5.22-1.26,8.1-3.48,8.1-2,0-3.29-2.81-3.32-7.89s1.45-8,3.49-8S237.72,29,237.72,33.84Zm-5.44.24c0,4,.8,6.26,2,6.26,1.39,0,2.06-2.48,2.06-6.41,0-3.77-.64-6.25-2-6.25C233.14,27.68,232.28,29.9,232.28,34.08Z"/><path d="M241.92,28.27h0l-1.74,1.44-.27-1.59,2.19-1.79h1.16V41.68h-1.31Z"/><path d="M246.77,37.78a4.58,4.58,0,0,1,2-4.1l0-.08a4.14,4.14,0,0,1-1.59-3.44c0-2.44,1.34-4.09,3.1-4.09,1.95,0,2.92,1.87,2.92,3.78a4.29,4.29,0,0,1-1.65,3.59v.07a4.37,4.37,0,0,1,2,4c0,2.67-1.5,4.46-3.41,4.46C248,41.94,246.77,40,246.77,37.78Zm5.39-.09a2.25,2.25,0,1,0-4-.19c0,1.56.73,2.93,2,2.93S252.16,39.27,252.16,37.69ZM248.43,30a2.8,2.8,0,0,0,1.91,2.84,3,3,0,0,0,1.53-2.79c0-1.23-.48-2.5-1.69-2.5S248.43,28.69,248.43,30Z"/><rect class="cls-1" x="402.36" y="64.7" width="41.19" height="30.21"/><path class="cls-1" d="M213,215.75,107.46,136.21C133.11,102.16,170.38,83.58,213,83.58Z"/><rect class="cls-2" x="402.36" y="110.02" width="41.19" height="30.21"/><path class="cls-2" d="M213,215.75,126.3,315.51a131.57,131.57,0,0,1-18.84-179.3Z"/><rect class="cls-3" x="402.36" y="155.33" width="41.19" height="30.21"/><path class="cls-3" d="M213,215.75,340.68,250A132.17,132.17,0,0,1,178.8,343.42a126.85,126.85,0,0,1-52.5-27.91Z"/><rect class="cls-4" x="402.36" y="200.65" width="41.19" height="30.21"/><path class="cls-4" d="M213,215.75,268.87,96c58.62,27.34,88.55,91.53,71.81,154Z"/><rect class="cls-5" x="402.36" y="245.96" width="41.19" height="30.21"/><path class="cls-5" d="M213,215.75V83.58c20.66,0,37.14,3.65,55.86,12.38Z"/><path d="M455.12,76.52a4.72,4.72,0,0,0-1,.06,4.07,4.07,0,0,0-3.49,3.57h.05a3.06,3.06,0,0,1,5.45,2.08,3.36,3.36,0,0,1-3.33,3.54c-2.15,0-3.56-1.67-3.56-4.28a6.32,6.32,0,0,1,1.7-4.53,5.58,5.58,0,0,1,3.21-1.48,6.81,6.81,0,0,1,1-.08Zm-.38,5.79a2,2,0,0,0-2.07-2.3,2.25,2.25,0,0,0-1.95,1.23,1.21,1.21,0,0,0-.15.6c0,1.66.78,2.88,2.21,2.88C454,84.72,454.74,83.74,454.74,82.31Z"/><path d="M463.31,76.7h-3.83l-.39,2.58a5.53,5.53,0,0,1,.82-.06,4.25,4.25,0,0,1,2.16.54,2.86,2.86,0,0,1,1.44,2.58,3.49,3.49,0,0,1-3.74,3.43,4.92,4.92,0,0,1-2.5-.62l.34-1a4.49,4.49,0,0,0,2.15.56,2.21,2.21,0,0,0,2.37-2.18c0-1.29-.88-2.22-2.88-2.22a9.78,9.78,0,0,0-1.39.11l.65-4.82h4.8Z"/><path d="M473.08,85.6l-.1-.95h-.05a2.78,2.78,0,0,1-2.28,1.12,2.13,2.13,0,0,1-2.29-2.15c0-1.81,1.61-2.8,4.49-2.78v-.15a1.54,1.54,0,0,0-1.7-1.73,3.7,3.7,0,0,0-1.94.55l-.31-.89a4.66,4.66,0,0,1,2.46-.67c2.28,0,2.84,1.56,2.84,3.06v2.8a10.88,10.88,0,0,0,.12,1.79Zm-.2-3.82c-1.48,0-3.16.23-3.16,1.69A1.2,1.2,0,0,0,471,84.76a1.87,1.87,0,0,0,1.81-1.25,1.61,1.61,0,0,0,.07-.43ZM470,75.9a1.46,1.46,0,0,1,1.57-1.47A1.44,1.44,0,1,1,470,75.9Zm2.34,0a.78.78,0,1,0-1.56,0,.78.78,0,1,0,1.56,0Z"/><path d="M476.39,80.45c0-.88,0-1.63-.06-2.33h1.19l0,1.47h.07A2.24,2.24,0,0,1,479.7,78a1.46,1.46,0,0,1,.38,0v1.28a2.09,2.09,0,0,0-.46,0A1.9,1.9,0,0,0,477.8,81a3.79,3.79,0,0,0-.07.63v4h-1.34Z"/><path d="M491.48,81.8a3.66,3.66,0,0,1-3.72,4,3.56,3.56,0,0,1-3.58-3.85,3.65,3.65,0,0,1,3.7-4A3.54,3.54,0,0,1,491.48,81.8Zm-5.93.07c0,1.64.94,2.88,2.27,2.88s2.27-1.22,2.27-2.91c0-1.26-.63-2.87-2.24-2.87S485.55,80.45,485.55,81.87Z"/><path d="M499.63,78.12c0,.54-.06,1.15-.06,2.06v4.34c0,1.71-.34,2.76-1.06,3.41a4,4,0,0,1-2.72.89,4.86,4.86,0,0,1-2.49-.61l.34-1a4.24,4.24,0,0,0,2.2.59c1.39,0,2.4-.73,2.4-2.61v-.84h0a2.65,2.65,0,0,1-2.37,1.26c-1.86,0-3.18-1.58-3.18-3.65,0-2.53,1.65-4,3.36-4a2.47,2.47,0,0,1,2.33,1.3h0l.07-1.13Zm-1.4,2.95a2,2,0,0,0-.08-.62,2,2,0,0,0-1.9-1.43C495,79,494,80.11,494,81.84c0,1.47.74,2.69,2.21,2.69a2,2,0,0,0,1.88-1.39,2.25,2.25,0,0,0,.11-.72Z"/><path d="M511.56,74.63v9c0,.66,0,1.42.06,1.93H510.4l-.06-1.3h0a2.78,2.78,0,0,1-2.55,1.47c-1.81,0-3.2-1.53-3.2-3.8,0-2.49,1.53-4,3.35-4a2.49,2.49,0,0,1,2.26,1.15h0V74.63Zm-1.36,6.53a2.76,2.76,0,0,0-.06-.57,2,2,0,0,0-2-1.57c-1.41,0-2.24,1.23-2.24,2.89s.74,2.76,2.21,2.76a2,2,0,0,0,2-1.62,2.74,2.74,0,0,0,.06-.59Z"/><path d="M514.57,82.11a2.4,2.4,0,0,0,2.57,2.59,4.78,4.78,0,0,0,2.06-.39l.24,1a6.19,6.19,0,0,1-2.49.46A3.47,3.47,0,0,1,513.28,82c0-2.25,1.32-4,3.5-4,2.44,0,3.09,2.15,3.09,3.52a4.34,4.34,0,0,1,0,.64Zm4-1a1.94,1.94,0,0,0-1.89-2.2,2.25,2.25,0,0,0-2.08,2.2Z"/><path d="M521.55,80.45c0-.88,0-1.63-.06-2.33h1.19l.05,1.47h.06A2.25,2.25,0,0,1,524.86,78a1.46,1.46,0,0,1,.38,0v1.28a2,2,0,0,0-.46,0A1.9,1.9,0,0,0,523,81a3.85,3.85,0,0,0-.06.63v4h-1.35Z"/><path d="M533.21,81.8a3.65,3.65,0,0,1-3.72,4,3.56,3.56,0,0,1-3.58-3.85,3.65,3.65,0,0,1,3.71-4A3.54,3.54,0,0,1,533.21,81.8Zm-5.93.07c0,1.64,1,2.88,2.27,2.88s2.27-1.22,2.27-2.91c0-1.26-.63-2.87-2.24-2.87S527.28,80.45,527.28,81.87Z"/><path d="M535.35,78.12l1.46,4.2a20,20,0,0,1,.61,1.92h0c.17-.62.39-1.24.64-1.92l1.45-4.2H541L538,85.6h-1.29l-2.84-7.48Z"/><path d="M542.85,82.11a2.4,2.4,0,0,0,2.57,2.59,4.86,4.86,0,0,0,2.07-.39l.23,1a6.19,6.19,0,0,1-2.49.46A3.47,3.47,0,0,1,541.56,82c0-2.25,1.32-4,3.5-4,2.44,0,3.09,2.15,3.09,3.52a4.34,4.34,0,0,1,0,.64Zm4-1a1.94,1.94,0,0,0-1.89-2.2,2.25,2.25,0,0,0-2.08,2.2Z"/><path d="M549.83,80.45c0-.88,0-1.63-.06-2.33H551l0,1.47h.06A2.25,2.25,0,0,1,553.14,78a1.6,1.6,0,0,1,.39,0v1.28a2.12,2.12,0,0,0-.47,0A1.9,1.9,0,0,0,551.24,81a3.85,3.85,0,0,0-.06.63v4h-1.35Z"/><path d="M453.59,130.91v-2.73h-4.66v-.9l4.48-6.4h1.46v6.23h1.41v1.07h-1.41v2.73Zm0-3.8v-3.35c0-.52,0-1.05.05-1.57h-.05c-.31.59-.55,1-.83,1.48l-2.46,3.41v0Z"/><path d="M463.31,122h-3.83l-.39,2.58a5.53,5.53,0,0,1,.82-.06,4.25,4.25,0,0,1,2.16.54,2.84,2.84,0,0,1,1.44,2.57,3.48,3.48,0,0,1-3.74,3.43,5,5,0,0,1-2.5-.61l.34-1a4.49,4.49,0,0,0,2.15.56,2.21,2.21,0,0,0,2.37-2.18c0-1.3-.88-2.22-2.88-2.22a11.81,11.81,0,0,0-1.39.1l.65-4.81h4.8Z"/><path d="M468.82,126.23v1H465v-1Z"/><path d="M475.71,121.83a5.46,5.46,0,0,0-1,.06,4.09,4.09,0,0,0-3.49,3.57h.05a3.06,3.06,0,0,1,5.45,2.09,3.36,3.36,0,0,1-3.34,3.53c-2.14,0-3.55-1.67-3.55-4.27a6.32,6.32,0,0,1,1.7-4.53,5.43,5.43,0,0,1,3.21-1.48,6.81,6.81,0,0,1,1-.08Zm-.39,5.79a2,2,0,0,0-2.06-2.3,2.24,2.24,0,0,0-1.95,1.24,1.15,1.15,0,0,0-.15.6c0,1.65.78,2.87,2.2,2.87C474.54,130,475.32,129.06,475.32,127.62Z"/><path d="M482.11,130.91v-2.73h-4.67v-.9l4.48-6.4h1.47v6.23h1.4v1.07h-1.4v2.73Zm0-3.8v-3.35c0-.52,0-1.05,0-1.57h0c-.31.59-.56,1-.84,1.48l-2.45,3.41v0Z"/><path d="M493.67,130.91l-.1-.94h-.05a2.78,2.78,0,0,1-2.29,1.11,2.12,2.12,0,0,1-2.28-2.14c0-1.81,1.6-2.8,4.49-2.78V126a1.54,1.54,0,0,0-1.7-1.73,3.7,3.7,0,0,0-1.94.56l-.31-.9a4.64,4.64,0,0,1,2.45-.66c2.29,0,2.85,1.56,2.85,3.06v2.79a10.8,10.8,0,0,0,.12,1.79Zm-.2-3.81c-1.48,0-3.16.23-3.16,1.68a1.2,1.2,0,0,0,1.28,1.3,1.87,1.87,0,0,0,1.81-1.25,1.68,1.68,0,0,0,.07-.43Zm-2.92-5.88a1.47,1.47,0,0,1,1.58-1.47,1.43,1.43,0,0,1,1.53,1.45,1.56,1.56,0,0,1-3.11,0Zm2.35,0a.78.78,0,1,0-1.56,0,.78.78,0,1,0,1.56,0Z"/><path d="M497,125.77c0-.88,0-1.64-.06-2.33h1.19l0,1.47h.06a2.24,2.24,0,0,1,2.07-1.64,1.15,1.15,0,0,1,.39,0v1.28a2.09,2.09,0,0,0-.46,0,1.92,1.92,0,0,0-1.83,1.75,3.85,3.85,0,0,0-.06.63v4H497Z"/><path d="M449.39,176.23v-.83l1.07-1c2.56-2.44,3.72-3.74,3.74-5.25a1.79,1.79,0,0,0-2-2,3.41,3.41,0,0,0-2.13.85l-.43-1a4.37,4.37,0,0,1,2.84-1,2.82,2.82,0,0,1,3.07,2.92c0,1.85-1.34,3.35-3.45,5.39l-.81.74v0h4.51v1.13Z"/><path d="M463.31,167.33h-3.83l-.39,2.58a5.53,5.53,0,0,1,.82-.06,4.25,4.25,0,0,1,2.16.54,2.86,2.86,0,0,1,1.44,2.58,3.49,3.49,0,0,1-3.74,3.43,4.92,4.92,0,0,1-2.5-.62l.34-1a4.62,4.62,0,0,0,2.15.55,2.21,2.21,0,0,0,2.37-2.17c0-1.3-.88-2.23-2.88-2.23a9.78,9.78,0,0,0-1.39.11l.65-4.82h4.8Z"/><path d="M468.82,171.55v1H465v-1Z"/><path d="M474.18,176.23V173.5h-4.66v-.9l4.48-6.41h1.46v6.24h1.41v1.07h-1.41v2.73Zm0-3.8v-3.35c0-.53,0-1.05.05-1.58h-.05c-.31.59-.55,1-.83,1.49l-2.46,3.41v0Z"/><path d="M482.11,176.23V173.5h-4.67v-.9l4.48-6.41h1.47v6.24h1.4v1.07h-1.4v2.73Zm0-3.8v-3.35c0-.53,0-1.05,0-1.58h0c-.31.59-.56,1-.84,1.49l-2.45,3.41v0Z"/><path d="M493.67,176.23l-.1-.94h-.05a2.81,2.81,0,0,1-2.29,1.11,2.13,2.13,0,0,1-2.28-2.15c0-1.8,1.6-2.79,4.49-2.78v-.15a1.54,1.54,0,0,0-1.7-1.73,3.7,3.7,0,0,0-1.94.56l-.31-.9a4.64,4.64,0,0,1,2.45-.66c2.29,0,2.85,1.56,2.85,3v2.8a10.8,10.8,0,0,0,.12,1.79Zm-.2-3.82c-1.48,0-3.16.24-3.16,1.69a1.2,1.2,0,0,0,1.28,1.3,1.87,1.87,0,0,0,1.81-1.26,1.55,1.55,0,0,0,.07-.43Zm-2.92-5.88a1.46,1.46,0,0,1,1.58-1.46,1.43,1.43,0,0,1,1.53,1.45,1.56,1.56,0,0,1-3.11,0Zm2.35,0a.8.8,0,0,0-.8-.85.79.79,0,0,0-.76.88.78.78,0,1,0,1.56,0Z"/><path d="M497,171.09c0-.88,0-1.64-.06-2.33h1.19l0,1.46h.06a2.24,2.24,0,0,1,2.07-1.63,1.51,1.51,0,0,1,.39,0v1.28a2.13,2.13,0,0,0-.46,0,1.91,1.91,0,0,0-1.83,1.74,4,4,0,0,0-.06.63v4H497Z"/><path d="M452.34,212.77h0l-1.74.95-.27-1,2.2-1.17h1.16v10h-1.32Z"/><path d="M457.19,219a2.87,2.87,0,0,1,2-2.69l0-.05a2.48,2.48,0,0,1-1.59-2.25,2.81,2.81,0,0,1,3.1-2.67c1.95,0,2.92,1.22,2.92,2.47a2.56,2.56,0,0,1-1.65,2.35v0a2.79,2.79,0,0,1,2,2.6c0,1.74-1.5,2.92-3.41,2.92C458.46,221.72,457.19,220.46,457.19,219Zm5.41-.06c0-1.22-.85-1.81-2.21-2.2a2.19,2.19,0,0,0-1.81,2.07,1.87,1.87,0,0,0,2,1.92A1.82,1.82,0,0,0,462.6,218.94Zm-3.74-5c0,1,.76,1.54,1.92,1.85A2,2,0,0,0,462.3,214a1.56,1.56,0,0,0-1.69-1.64A1.6,1.6,0,0,0,458.86,213.92Z"/><path d="M468.82,216.87v1H465v-1Z"/><path d="M470,221.55v-.84l1.07-1c2.56-2.44,3.72-3.74,3.73-5.25a1.79,1.79,0,0,0-2-2,3.39,3.39,0,0,0-2.13.85l-.43-1a4.37,4.37,0,0,1,2.84-1,2.82,2.82,0,0,1,3.07,2.92c0,1.85-1.34,3.35-3.46,5.39l-.8.74v0h4.51v1.13Z"/><path d="M482.11,221.55v-2.74h-4.67v-.89l4.48-6.41h1.47v6.24h1.4v1.06h-1.4v2.74Zm0-3.8V214.4c0-.53,0-1.05,0-1.58h0c-.31.59-.56,1-.84,1.48l-2.45,3.42v0Z"/><path d="M493.67,221.55l-.1-1h-.05a2.79,2.79,0,0,1-2.29,1.12,2.13,2.13,0,0,1-2.28-2.15c0-1.81,1.6-2.8,4.49-2.78v-.15a1.54,1.54,0,0,0-1.7-1.73,3.7,3.7,0,0,0-1.94.55l-.31-.89a4.56,4.56,0,0,1,2.45-.67c2.29,0,2.85,1.56,2.85,3.06v2.79a10.93,10.93,0,0,0,.12,1.8Zm-.2-3.82c-1.48,0-3.16.23-3.16,1.68a1.2,1.2,0,0,0,1.28,1.3,1.87,1.87,0,0,0,1.81-1.25,1.61,1.61,0,0,0,.07-.43Zm-2.92-5.88a1.47,1.47,0,0,1,1.58-1.47,1.43,1.43,0,0,1,1.53,1.45,1.56,1.56,0,0,1-3.11,0Zm2.35,0a.78.78,0,1,0-1.56,0,.78.78,0,1,0,1.56,0Z"/><path d="M497,216.4c0-.88,0-1.63-.06-2.33h1.19l0,1.47h.06a2.24,2.24,0,0,1,2.07-1.64,1.48,1.48,0,0,1,.39,0v1.28a2.09,2.09,0,0,0-.46,0,1.92,1.92,0,0,0-1.83,1.75,3.85,3.85,0,0,0-.06.63v4H497Z"/><path d="M456.06,261.74c0,3.41-1.26,5.29-3.49,5.29-2,0-3.29-1.84-3.32-5.16s1.46-5.22,3.49-5.22S456.06,258.54,456.06,261.74Zm-5.45.15c0,2.61.81,4.09,2,4.09,1.39,0,2.05-1.62,2.05-4.18s-.63-4.1-2-4.1C451.48,257.7,450.61,259.16,450.61,261.89Z"/><path d="M460.9,262.18v1h-3.82v-1Z"/><path d="M465,258.09h0l-1.75.94-.26-1,2.19-1.18h1.16v10H465Z"/><path d="M476.5,256.82v.9l-4.37,9.14h-1.41l4.36-8.88v0h-4.91v-1.13Z"/><path d="M485.75,266.86l-.11-.94h0a2.78,2.78,0,0,1-2.29,1.11,2.13,2.13,0,0,1-2.29-2.14c0-1.81,1.61-2.8,4.5-2.78V262a1.54,1.54,0,0,0-1.7-1.73,3.74,3.74,0,0,0-1.95.56l-.3-.9a4.62,4.62,0,0,1,2.45-.66c2.29,0,2.84,1.56,2.84,3.06v2.79a9.76,9.76,0,0,0,.13,1.79Zm-.2-3.81c-1.48,0-3.17.23-3.17,1.68a1.21,1.21,0,0,0,1.28,1.3,1.85,1.85,0,0,0,1.81-1.25,1.35,1.35,0,0,0,.08-.43Zm-2.92-5.89a1.46,1.46,0,0,1,1.58-1.46,1.43,1.43,0,0,1,1.52,1.45,1.56,1.56,0,0,1-3.1,0Zm2.35,0a.78.78,0,1,0-1.56,0,.78.78,0,1,0,1.56,0Z"/><path d="M489.06,261.72c0-.88,0-1.64-.07-2.33h1.19l.05,1.47h.06a2.24,2.24,0,0,1,2.07-1.64,1.61,1.61,0,0,1,.39,0v1.29a2.12,2.12,0,0,0-.47-.05,1.92,1.92,0,0,0-1.82,1.74,4.1,4.1,0,0,0-.06.64v4h-1.34Z"/></svg>